<svg xmlns="http://www.w3.org/2000/svg" xmlns:xlink="http://www.w3.org/1999/xlink" fill-rule="evenodd" image-rendering="optimizeQuality" shape-rendering="geometricPrecision" viewBox="0 0 256 256"><defs><linearGradient id="a"><stop offset="0" stop-color="#ca61ed"/><stop offset="1" stop-color="#ca61ed" stop-opacity=".15853659"/></linearGradient><linearGradient xlink:href="#a" id="b" x1="88.8616" x2="502.69275" y1="250.68629" y2="250.68629" gradientUnits="userSpaceOnUse"/><filter id="c" width="1.0030949" height="1.0027994" x="-.00154743" y="-.00139969" color-interpolation-filters="sRGB"><feGaussianBlur stdDeviation=".266"/></filter></defs><g fill="url(#b)" filter="url(#c)" transform="matrix(.62052 0 0 .56128 -55.537 -12.705)"><path fill="#ca61ed" d="M115.5 443.5c1.333.667 1.333.667 0 0zm-3-82c2.418 2.378 2.585 5.045.5 8a32.46 32.46 0 0 1-.5-8zm79-64c.739-.131 1.406.036 2 .5a26.9 26.9 0 0 1-5.5 6.5c.579-2.492 1.746-4.825 3.5-7zm-43-3c-.296 1.903-.963 3.57-2 5-.423-2.281.244-3.948 2-5zm244-2c.789.283 1.456.783 2 1.5-1.316.528-1.983.028-2-1.5zm28 27c2.953-11.569 7.786-22.236 14.5-32 .667 1 .667 2 0 3zm-154-38c-.294 3.254-1.627 5.921-4 8 .826-2.985 2.159-5.651 4-8zm-107-13a43.43 43.43 0 0 1 0 5c-1.503.552-3.169.552-5 0-.219-1.175.114-2.175 1-3 1.526-.494 2.859-1.161 4-2zm65-1c1.052-.149 2.052.017 3 .5-14.156 8.432-27.656 18.599-40.5 30.5-1.398 2.314-1.565 4.647-.5 7-.645 1.146-1.478 2.146-2.5 3-.078-2.157-.245-4.157-.5-6 8.539-17.886 22.205-29.553 41-35zm-55-18c-.354 2.041-.354 3.874 0 5.5l-1.5 1.5c-.588-2.639-.088-4.973 1.5-7zm8 17c-.194 2.412-1.527 3.412-4 3 .12 2.705-.88 3.372-3 2-1.231 1.151-1.231 2.317 0 3.5-3.511.193-6.845-.474-10-2a71.34 71.34 0 0 1 18-14c-6.146.857-8.313-1.643-6.5-7.5 2.344-4.088 5.844-5.922 10.5-5.5 4.778 3.966 5.278 8.466 1.5 13.5l-7 5c-.692.937-.525 1.603.5 2zm136-35c6.097 1.714 6.097 4.048 0 7-2.538-2.24-2.538-4.573 0-7zm-106-39c.876-.131 1.543.202 2 1a142.2 142.2 0 0 0-6 12c-.667 1.333-1.333 1.333-2 0 .928-1.268 1.095-2.601.5-4-7.013 6.678-14.346 13.011-22 19 2.082-4.81 4.748-9.477 8-14 6.351-3.353 12.018-7.686 17-13 1.461 1.383 2.294 1.049 2.5-1zm194-2v4c-1.235.221-2.235.888-3 2-.808-.308-1.475-.808-2-1.5 1.997-1.193 3.664-2.693 5-4.5zm-177-1h1c-.209 1.422-.709 2.755-1.5 4-.579-1.428-.412-2.762.5-4zm-45 0c-.342-.838-1.008-1.172-2-1 .017-1.528.684-2.028 2-1.5 1.274.977 1.274 1.811 0 2.5zm-35-11c-.96 3.402-.96 6.735 0 10-1.333.333-1.333.667 0 1 .85 1.994 1.35 3.994 1.5 6-5.272-5.363-5.772-11.03-1.5-17zm1-2c.172.992-.162 1.658-1 2-.172-.992.162-1.658 1-2zm1-1c-.667.667-.667.667 0 0zm-2 14v-1c.996.086 1.829-.248 2.5-1 .214-4.809 1.714-9.143 4.5-13a103.59 103.59 0 0 1 6.5 12c1.419.96 2.919 1.793 4.5 2.5-2.42.687-4.587.187-6.5-1.5-4.125-13.489-6.125-13.155-6 1 1.145 2.977 3.312 4.644 6.5 5a100.32 100.32 0 0 1 8-1.5c3.866-2.755 3.866-5.421 0-8a20.43 20.43 0 0 0 1.5-5.5c1.458-1.247 2.958-1.247 4.5 0 2.999 5.136 2.665 9.969-1 14.5-5.759 1.884-11.592 3.384-17.5 4.5a28.65 28.65 0 0 0-7.5-8zm22-8c.958.453 1.792 1.119 2.5 2 .483-.948.649-1.948.5-3-1.291-.237-2.291.096-3 1zm-20-7c1.333.667 1.333.667 0 0zm3-1c.397-1.025 1.063-1.192 2-.5-.594.464-1.261.631-2 .5zm257-2c.017-1.528.684-2.028 2-1.5-.544.717-1.211 1.217-2 1.5zm-200-24c-1.946-.754-2.779-2.088-2.5-4 1.481.971 2.315 2.304 2.5 4zm74-4c-5.791-1.114-7.791-4.447-6-10 2.5 2.994 4.5 6.327 6 10zm193-51c.739-.131 1.406.036 2 .5-.937.692-1.603.525-2-.5zm-290-1h1c.269 1.929-.231 3.595-1.5 5-.384-1.697-.218-3.363.5-5zm68-1c.057 1.109.39 2.109 1 3-2.052-.553-2.385-1.553-1-3zm-55-15c1.025.397 1.192 1.063.5 2-3.441 3.621-7.274 6.621-11.5 9 3.784-3.424 7.451-7.09 11-11zm10-4-1 2c-.891.61-1.891.943-3 1 .535-1.946 1.868-2.946 4-3zm99-2c-.017 1.528-.684 2.028-2 1.5.544-.717 1.211-1.217 2-1.5zm50-11c1.589-1.121 3.256-.954 5 .5-1.697.385-3.363.218-5-.5zm-8-2c2.813-.475 4.813.525 6 3l-6-3zm0 0c-2.501-.011-2.668-.678-.5-2 .464.594.631 1.261.5 2zm126 36c-5.852-.87-8.352 1.463-7.5 7 10.175 8.509 19.342 18.009 27.5 28.5-2.598-.126-4.931-1.126-7-3l-9-9c-3.751-.066-7.251-.899-10.5-2.5l-1.5 1c1.165 1.084 2.498 1.917 4 2.5l-2 1a56.27 56.27 0 0 1 7 2.5c-.574 1.559-1.24 3.059-2 4.5 2.798.561 4.631-.606 5.5-3.5a12.14 12.14 0 0 1 4.5 3.5c-2.502 1.337-4.502 3.171-6 5.5 22.926 46.98 30.426 96.314 22.5 148-4.569 13.707-8.736 27.541-12.5 41.5l.5 1.5 11-24c.667 1.667.667 3.333 0 5-5.34 12.85-11.84 25.017-19.5 36.5 3.148-.107 6.314-.607 9.5-1.5 1.28.113 2.113.78 2.5 2-5.648 8.93-12.482 16.93-20.5 24l-8 12c-.688.832-.521 1.498.5 2 2.268-1.044 4.601-1.211 7-.5l-22 24c1.801.317 2.134.984 1 2l-16 7c-17.292 16.825-37.625 28.825-61 36a381.91 381.91 0 0 1-34 5.5c-11.579-.065-23.245-.898-35-2.5-38.668 28.532-81.335 36.532-128 24-40.604-14.609-66.771-42.776-78.5-84.5-10.082-37.532-4.915-72.698 15.5-105.5-3.069-3.048-6.735-5.381-11-7-8.052-7.492-10.885-16.658-8.5-27.5a12.02 12.02 0 0 1 3-7c-4.527 11.088-2.694 21.088 5.5 30 .896 1.006 1.562 1.006 2 0a58.78 58.78 0 0 0-7-10.5c.457-.414.791-.914 1-1.5-1.666-1.492-2.666-3.325-3-5.5 1.525-6.912 4.025-13.412 7.5-19.5-.755 3.958-1.755 7.958-3 12-1.068 7.628 2.099 12.794 9.5 15.5 8.887 1.445 11.054-1.721 6.5-9.5a16.42 16.42 0 0 0-7.5-4c3.046-8.634 9.046-11.467 18-8.5.825 1.688 1.825 1.855 3 .5 2.789 3.291 5.789 6.458 9 9.5 1.941.743 3.774.576 5.5-.5-1.829-5.838-3.496-11.838-5-18a114.98 114.98 0 0 0-2-18c-1.612-2.573-3.112-5.239-4.5-8 .406-2.484 1.573-4.484 3.5-6 5.836-3.186 10.503-.852 14 7 1.769 3.807 2.602 7.807 2.5 12-.452 2.706-.452 5.206 0 7.5-1.972 3.92-3.139 8.086-3.5 12.5-.104 10.059-.771 20.059-2 30-1.766 2.096-3.099 4.429-4 7-2.333.913-4.166 2.413-5.5 4.5-.667.667-1.333.667-2 0 3.458-6.17 7.125-11.67 11-16.5-1.574-1.131-3.241-1.298-5-.5-3.487 5.315-6.987 10.482-10.5 15.5a21.53 21.53 0 0 0-6 5l-1-1c-1.649 2.15-3.482 4.15-5.5 6-.581-2.095-.581-3.928 0-5.5a25.99 25.99 0 0 0 6-11.5c11.71-9.121 11.71-18.288 0-27.5-5.394-3.878-10.061-3.211-14 2 13.307-1.691 18.807 4.142 16.5 17.5-4.101 6.433-7.768 13.099-11 20-.981 3.284-.147 5.951 2.5 8a232.09 232.09 0 0 0 18-9.5c11.527-4.767 23.193-6.101 35-4a87.87 87.87 0 0 0 11 4.5c.925-1.141 1.759-1.141 2.5 0l1-5c1.333 1.333 2.667 1.333 4 0-3.472 14.251-6.305 28.584-8.5 43-.149 1.052.017 2.052.5 3 10.391-21.724 26.224-38.224 47.5-49.5a23.65 23.65 0 0 0 3-3.5l3 2c5.299-3.988 10.966-7.488 17-10.5 15.686-4.671 31.686-7.671 48-9 2.908-.689 5.575-1.855 8-3.5l2 1a176.65 176.65 0 0 0 9-2c-1.151-1.231-2.317-1.231-3.5 0-.825-2.201-.325-4.034 1.5-5.5 4.916-1.161 9.916-1.827 15-2 1.158-1.362 1.158-2.862 0-4.5 7.284.8 14.617 1.3 22 1.5-4.505 1.749-8.505 4.249-12 7.5v-3c-1.634.468-2.8 1.468-3.5 3l-1-1c-5.676 4.981-10.676 10.648-15 17-.579 1.428-.412 2.762.5 4 1.653-1.105 3.32-1.271 5-.5 7.048-11.382 16.382-20.382 28-27a181.28 181.28 0 0 1 21-3c-1.212-1.107-.879-1.607 1-1.5-4.643-2.496-9.643-4.329-15-5.5a464.43 464.43 0 0 0-47 1c-.236-2.314-.236-4.48 0-6.5a31.84 31.84 0 0 0-5 4.5c.457.414.791.914 1 1.5-3.001-.038-5.001 1.629-6 5 1.358-1.126 2.692-1.126 4 0 .273 3.304-1.06 6.137-4 8.5-7.732 3.466-15.732 6.133-24 8-10.376.317-20.71 1.151-31 2.5l-12-3c-6.2.477-12.2 1.811-18 4-1.196-.346-1.196-.846 0-1.5 2.917-1.528 5.917-2.861 9-4l-1-1c.808-.308 1.475-.808 2-1.5-1.786-4.68-5.119-6.18-10-4.5a21.53 21.53 0 0 0-6 5c1.476 4.252.476 7.919-3 11 8.897-1.18 17.73-3.013 26.5-5.5 2.805 1.268 3.639 3.268 2.5 6-4.281 4.495-9.614 6.995-16 7.5-8.048 1.939-16.048 1.772-24-.5-.808.308-1.475.808-2 1.5 2.119.098 3.786.931 5 2.5-3.354 3.014-6.187 6.348-8.5 10-.667-2-2-3.333-4-4-.684-1.284-.517-2.451.5-3.5-3.748.22-6.748-1.113-9-4a8.43 8.43 0 0 0-4-.5c11.056-5 14.389-13.166 10-24.5-8.073-2.123-14.073.377-18 7.5 1.787-5.284 5.453-8.784 11-10.5-1.333-1-1.333-2 0-3l20-11 35-23a101.66 101.66 0 0 1 23.5-9.5c.414.457.914.791 1.5 1a412.05 412.05 0 0 1 30-7c5.021-1.486 9.187-4.153 12.5-8 1.868 1.172 3.702 1.005 5.5-.5a691.41 691.41 0 0 0 29-20c7.667-6.333 14.667-13.333 21-21-10.122 7.112-20.122 14.779-30 23-13.646 8.656-27.979 15.99-43 22-18.477 3.622-36.31 9.122-53.5 16.5l-7 7-1-1c-2.428 3.098-5.428 5.431-9 7-3.949-.708-7.282.625-10 4-12.534 7.117-24.201 16.117-35 27-3.009 4.477-4.842 9.477-5.5 15 .562 4.597 1.728 4.93 3.5 1 .374.916.874 1.75 1.5 2.5-3.894 5.647-9.228 7.647-16 6-.924-.85-.924-1.85 0-3-1.203-1.368-2.203-2.868-3-4.5 5.25-19.415 6.25-39.082 3-59 4.236-.059 8.236-1.059 12-3 4.641 2.26 7.641 5.927 9 11-1.196 1.645-2.196 3.311-3 5-.805 1.713-1.805 3.379-3 5-.493-1.933-.993-4.266-1.5-7-1.068 3.478-2.235 6.478-3.5 9l.5 2c1.667-2.667 3.333-2.667 5 0 5.039-6.082 7.872-13.082 8.5-21a150.87 150.87 0 0 1-5-10.5c3.813-10.199 2.147-19.366-5-27.5 2.115-2.823 4.781-3.49 8-2 .736 2.041 1.569 4.041 2.5 6 1.478-8.378 2.812-16.712 4-25a131 131 0 0 0-16.5 7.5c-10.948-.359-20.614 2.975-29 10-7.947 9.07-16.447 17.57-25.5 25.5a194.71 194.71 0 0 0-11 24c-.309-1.266-.809-2.433-1.5-3.5-.191-11.651.309-23.484 1.5-35.5.713-4.852 2.046-9.519 4-14l9.5-19-22 9-2-1c3.414-6.245 7.414-12.079 12-17.5a793.45 793.45 0 0 1 37-30c3.452-2.393 7.119-4.226 11-5.5-.273-1.951.393-3.451 2-4.5a12.5 12.5 0 0 0-7 0c-8.758 3.878-17.424 8.045-26 12.5-1.196-.346-1.196-.846 0-1.5 4.292-1.396 7.792-3.896 10.5-7.5 1.313.787 2.48.454 3.5-1-.739.131-1.406-.036-2-.5a80.27 80.27 0 0 1 20-13.5c19.432-12.214 40.099-22.047 62-29.5a1375.25 1375.25 0 0 0 98-23c9.968-1.379 19.968-1.713 30-1a635.39 635.39 0 0 1 45 8l34 16a148.73 148.73 0 0 1 16 13 302.74 302.74 0 0 1-16.5-6.5 15.28 15.28 0 0 1-4.5 1.5l38 28c7.328 2.668 14.328 5.835 21 9.5zm-165-67c3.447 1.379 7.114 2.046 11 2 14.363-2.787 28.363-1.62 42 3.5-15.647-.529-31.313-.529-47 0a137.47 137.47 0 0 1-28 3c1.196.654 1.196 1.154 0 1.5a10.31 10.31 0 0 0-3-1c-5.632 1.504-11.298 2.338-17 2.5 14.272-3.232 28.272-7.066 42-11.5zm58 6c4.576-.671 9.243-.171 14 1.5a45.8 45.8 0 0 1-14-1.5zm-46 1c5.708-.008 6.041.492 1 1.5-1.962 1.621-3.629 3.454-5 5.5-5.436-3.147-5.269-4.48.5-4 1.145-1.136 2.312-2.136 3.5-3zm29 1a50.44 50.44 0 0 0-10 .5l-1.5 1.5c-2.244-2.494-4.577-2.494-7 0-.772-1.349-1.939-2.182-3.5-2.5 7.512-.822 14.845-.655 22 .5zm-2 3c.282-1.278.949-2.278 2-3 1.762.143 3.429-.191 5-1 7.927 1.389 15.927 2.389 24 3l-.5 1c-1.4-.616-2.9-.949-4.5-1-5.852.436-11.519 1.436-17 3-2.134-.015-4.134-.515-6-1.5a7.29 7.29 0 0 0 3-2c-2.195-.409-4.195.091-6 1.5zm32-1c2.905-1.2 5.905-1.034 9 .5l14 8-5 .5c-3.533-.154-6.2-1.154-8-3-7.17.79-14.336.456-21.5-1-1.169-.508-2.002-1.342-2.5-2.5 6.953 1.607 13.953 1.273 21-1a129.7 129.7 0 0 1-7-1.5zm-90 2c2.607-1.302 5.273-1.136 8 .5-2.771-.383-5.437-.549-8-.5zm44-1c1.373-.157 2.707.01 4 .5-3.57 1.428-7.236 2.094-11 2 2.333-1.043 4.666-1.876 7-2.5zm14 0c-2.016 2.644-4.683 3.477-8 2.5 2.362-1.731 5.029-2.565 8-2.5zm-94 4c3.811-1.145 7.811-1.312 12-.5 1.544.29 2.877.956 4 2-5.361.053-10.695-.447-16-1.5zm93-1c3.499-.241 3.832.592 1 2.5-6.31.861-6.644.027-1-2.5zm-143 17c-.65-.304-1.317-.637-2-1-3.836 1.813-7.836 2.313-12 1.5A553.19 553.19 0 0 1 251 41.5c3.012.226 5.845 1.059 8.5 2.5-17.978 1.191-35.644 4.525-53 10l5 1c-2.865.183-5.531.683-8 1.5zm153-14c4.273 2.523 3.94 3.356-1 2.5.752-.671 1.086-1.504 1-2.5zm9 0c5.073 1.243 4.74 2.243-1 3l-1-.5c.881-.708 1.547-1.542 2-2.5zm19 2c7.254.799 14.588 1.299 22 1.5l6 2a401.93 401.93 0 0 1-25-1c-1.619-.236-2.619-1.069-3-2.5zm-9 1c6.36 4.201 5.36 5.034-3 2.5l-1-1c1.558-.21 2.891-.71 4-1.5zm-80 3a3 3 0 0 0-2 2c-3.098.087-3.432-.413-1-1.5l-1.5-.5a17.62 17.62 0 0 1-9 4c-5.91-.906-11.576.094-17 3-4.256.616-8.59.616-13 0-1.81 2.518-3.643 2.518-5.5 0 1.042-1.291 2.208-1.291 3.5 0 1.645-2.215 3.812-3.048 6.5-2.5-2.435 1.003-2.102 1.503 1 1.5 3.786-.104 3.786-.771 0-2 4.602-1.851 9.269-2.184 14-1 .928-1.835 2.094-2.168 3.5-1 2.778-.825 5.611-1.492 8.5-2-1.35 1.15-1.184 1.817.5 2 3.216-2.017 6.716-3.351 10.5-4 .798.457 1.131 1.124 1 2zm11-1c-1.739.934-3.405.934-5 0 1.799-1.288 3.465-1.288 5 0zm2 0c3.414-.532 6.914-.865 10.5-1 20.972 2.534 40.806 8.701 59.5 18.5-1 .667-2 .667-3 0-5.969-4.514-12.135-5.681-18.5-3.5-.71-1.473-1.876-2.14-3.5-2l1 2c-10.572-4.947-21.572-8.781-33-11.5 1.196-.654 1.196-1.154 0-1.5-.765 1.112-1.765 1.779-3 2-1.333-1.333-2.667-1.333-4 0-1.574-.437-2.741-1.437-3.5-3-.77 1.098-1.603 1.098-2.5 0zm-15 3c1.992-.172 3.658.495 5 2a14.72 14.72 0 0 0 1.5-5c.833 2.833 2.667 4.667 5.5 5.5-3.648 1.849-7.314 1.682-11-.5-.798-.457-1.131-1.124-1-2zm12 0c1.864-1.293 3.864-1.293 6 0-1.826.42-3.826.42-6 0zm91 1c-3.49-1.836-2.823-2.336 2-1.5-.916.278-1.582.778-2 1.5zm7 0c-1.175.219-2.175-.114-3-1 1.574-1.131 3.241-1.297 5-.5-.916.278-1.582.778-2 1.5zm-89-1h4a8.43 8.43 0 0 1-.5 4c-1.204-.971-1.704-1.971-1.5-3-2.637 2.684-3.303 2.35-2-1zm57 0c.789.283 1.456.783 2 1.5-1.316.528-1.983.028-2-1.5zm-52 1c2.954.928 5.954 1.761 9 2.5-.899 1.236-2.066 2.07-3.5 2.5-1.284-1.68-3.117-3.347-5.5-5zm77 0c1.528.017 2.028.684 1.5 2-.717-.544-1.217-1.211-1.5-2zm-21 2c6.61-1.177 13.276-.677 20 1.5-6.683-.001-13.35-.501-20-1.5zm25 2c2.696-1.273 5.362-.94 8 1-.209.586-.543 1.086-1 1.5l4 1-3 .5c-2.414-1.724-5.08-3.058-8-4zm-154 0c.131.739-.036 1.406-.5 2-1.425.579-3.092.579-5 0-9.092 3.642-18.259 6.808-27.5 9.5 10.252-5.918 21.252-9.751 33-11.5zm75 0c1.282 1.208 1.282 2.542 0 4-.792-1.2-.792-2.533 0-4zm13 0c4.736.385 5.069 1.719 1 4a4.85 4.85 0 0 1-1-4zm-131 1c1.175-.219 2.175.114 3 1-9.077 2.982-18.244 5.649-27.5 8l-1.5-1.5c8.773-2.822 17.44-5.322 26-7.5zm63 0c2.512.716 2.512 1.716 0 3-1.062-.925-1.062-1.925 0-3zm23 0c.951 1.618 2.284 2.951 4 4a7.29 7.29 0 0 1-3 2 9.86 9.86 0 0 1-1-6zm31 19c-2.954-1.781-5.787-3.781-8.5-6a14.49 14.49 0 0 1-5.5 5 118.58 118.58 0 0 1-9.5-4c-1.15.924-2.15.924-3 0-1.085 2.157-2.251 2.324-3.5.5 1.244-2.303 2.911-2.803 5-1.5 3.482-2.587 6.815-2.587 10 0 1.542-.801 3.208-1.134 5-1-1.095-4.111-3.095-7.778-6-11 .502-1.021 1.168-1.188 2-.5 5.704 5.517 10.371 11.683 14 18.5zm-10-18c2.921.565 5.588 1.732 8 3.5l-3.5 3.5c-1.172-2.629-2.672-4.962-4.5-7zm76 2c1.446-1.113 3.113-1.28 5-.5-.916.374-1.75.874-2.5 1.5-.671-.752-1.504-1.086-2.5-1zm-113 0c4.938.596 8.604 3.096 11 7.5a37.15 37.15 0 0 0-2 4.5l6 1c-1.816 1.442-3.816 1.942-6 1.5-2.169-2.819-3.669-5.986-4.5-9.5-1.389 3.772-2.389 3.772-3 0-1.205-.571-2.372-1.238-3.5-2l2-3zm-25 1a4.85 4.85 0 0 1 4 1c-2.65 3.151-5.484 6.151-8.5 9-4.422-2.463-4.422-4.797 0-7v4c1.778-2.188 3.278-4.522 4.5-7zm35 0a7.09 7.09 0 0 1 4 3c-2.919 1.432-4.252.432-4-3zm55 0c8.582-.477 10.749 2.856 6.5 10-2.056-3.526-4.223-6.859-6.5-10zm69 0c2.483.23 2.983.897 1.5 2-1.03-.336-1.53-1.003-1.5-2zm-75 2c2.966 2.618 3.633 5.785 2 9.5-3.84-.4-7.507-1.734-11-4 2.798-2.305 5.798-4.138 9-5.5zm40 3-4-1c-.131-.739.036-1.406.5-2 1.518.663 2.685 1.663 3.5 3zm23-2c2.287.224 4.453.891 6.5 2 1.789-.909 3.623-1.076 5.5-.5-1.517 1.508-3.351 2.342-5.5 2.5-2.407-1.13-4.907-1.963-7.5-2.5.556-.383.889-.883 1-1.5zm65 40a117.28 117.28 0 0 1-12-8.5l4-1c-3.372-1.019-6.372-2.519-9-4.5 2.454-.18 4.621.487 6.5 2l1.5-.5a6.54 6.54 0 0 1-3-3c-8.339-3.539-16.006-8.039-23-13.5-.886-.825-1.219-1.825-1-3a4.93 4.93 0 0 0 3-.5c-5.319-.827-9.985-2.993-14-6.5l1.5-1a34.39 34.39 0 0 0 11.5 4 935.57 935.57 0 0 1 28 23.5c-2.186.604-2.352 1.77-.5 3.5.689.857 1.522 1.523 2.5 2 2.436-1.391 3.102-.891 2 1.5l2 1c-.466 1.299-.466 2.799 0 4.5zm-198-38c-2.899 1.476-4.899 3.809-6 7-1.783-.848-2.283-2.181-1.5-4l3.5-3.5c1.566-.765 2.899-.598 4 .5zm-73 0c-3.761 1.484-7.761 2.484-12 3a3 3 0 0 1-2-2c4.496-.065 9.163-.398 14-1zm74 1c3.326-.489 3.493.178.5 2-.464-.594-.631-1.261-.5-2zm96-1a7.11 7.11 0 0 1 5 1 28.54 28.54 0 0 0 7 8.5c-1.943 3.332-3.11 3.166-3.5-.5l-1 2c-.684-1.284-.517-2.451.5-3.5-4.931.004-7.598-2.496-8-7.5zm24 3a4.85 4.85 0 0 1-4-1c1.531-.921 2.865-.588 4 1zm-213-1c5.064.198 4.897.865-.5 2l-1.5-.5c.916-.278 1.582-.778 2-1.5zm56 0c.739-.131 1.406.036 2 .5-.146 2.371-1.146 4.704-3 7-2.503.874-4.503.207-6-2 .808-1.706 2.141-2.539 4-2.5.347 4.921 1.347 4.754 3-.5l-2-1c.916-.278 1.582-.778 2-1.5zm9 1c3.183.429 5.516 2.096 7 5-.526 1.73-1.526 3.064-3 4a26 26 0 0 0-7-5c-1.083.865-1.249 1.865-.5 3l1-1a55.78 55.78 0 0 1 4.5 5.5c-1.735 1.984-3.068 1.651-4-1 1.154-.914.987-1.747-.5-2.5l-1 1a10.5 10.5 0 0 1-3.5-5c2.265-1.627 4.599-2.961 7-4zm29 2c1.705-2.787 2.872-2.454 3.5 1 2.582-.812 4.749.022 6.5 2.5 1.612.72 3.112.554 4.5-.5l1.5 1.5c-3.608.026-6.942.859-10 2.5l-2-4c-2.566 2.377-5.233 2.377-8 0 .783-1.788 2.116-2.788 4-3zm88-2c6.832.82 7.499 3.153 2 7-8.559.397-9.226-1.936-2-7zm50 0a24.94 24.94 0 0 1 7 .5c-2.684 2.145-5.017 1.978-7-.5zm-225 1c7.755.137 7.588.803-.5 2l-2.5-.5c1.237-.232 2.237-.732 3-1.5zm29 2c-2.132.054-3.465 1.054-4 3l-9.5 9-1 5-1-3-4 4c.492 4.949.492 9.949 0 15-1.699-.906-3.533-1.239-5.5-1 .437 3.307-.23 6.307-2 9-3.344-2.722-4.011-6.055-2-10-4.708.492-5.208-.841-1.5-4l1 2 4-8c.671-.752 1.504-1.086 2.5-1-.718 1.637-.884 3.303-.5 5 1.269-1.405 1.769-3.071 1.5-5 .15-1.559.483-3.226 1-5 4.226-2.379 8.059-5.379 11.5-9 .692-.937.525-1.603-.5-2 2.849-2.35 6.015-4.35 9.5-6 .464.594.631 1.261.5 2zm-1 2 1-2c1.928-1.036 3.928-1.536 6-1.5-1.567 2.741-3.901 3.908-7 3.5zm-45 3c-3.485 1.091-6.819 1.091-10 0 6.998-2.498 14.164-4.498 21.5-6l1.5 1-12 3.5c-.556.383-.889.883-1 1.5zm54-6c.739-.131 1.406.036 2 .5-.415 4.895-1.748 5.395-4 1.5.743-.682 1.409-1.349 2-2zm158 2c-.789-.283-1.456-.783-2-1.5 1.316-.528 1.983-.028 2 1.5zm15-2c3.174.51 5.508 2.177 7 5-1.109-.057-2.109-.39-3-1-.342-.838-1.008-1.172-2-1 0-.667-.333-1-1-1l-1-2zm23 0c1.679.392 3.346.892 5 1.5-2 .667-4 .667-6 0 .556-.383.889-.883 1-1.5zm6 1c2.193-1.297 4.527-1.297 7 0-2.311 1.075-4.644 1.075-7 0zm-44 1c2 0 3 1 3 3a6.54 6.54 0 0 1-3-3zm14 0h2c.667 0 1 .333 1 1 .131.739-.036 1.406-.5 2-1.417-.578-2.25-1.578-2.5-3zm-181 1c0 2-1 3-3 3v-2c1.109-.057 2.109-.39 3-1zm175 0c.789.283 1.456.783 2 1.5-1.316.528-1.983.028-2-1.5zm35 0c.543.06.876.393 1 1-1.574 1.131-3.241 1.297-5 .5 1.558-.21 2.891-.71 4-1.5zm-201 4a39.1 39.1 0 0 0-4.5 2 12.93 12.93 0 0 1-.5-5c2.164.222 3.83 1.222 5 3zm-54-1c4.222.237 8.389-.096 12.5-1a3.43 3.43 0 0 1 2.5 1.5c-5.184.816-10.184.65-15-.5zm36-1c-3.549 3.91-7.216 7.576-11 11-3.836 2.084-7.503 4.417-11 7v-1c6.563-6.621 13.897-12.287 22-17zm22 8c-.097 3.094-1.097 5.76-3 8-1.333.333-1.333.667 0 1 1.577 2.302.911 3.802-2 4.5 1.154.914.987 1.747-.5 2.5-1.76-3.859-3.76-7.525-6-11l-2.5 6c-2.621-3.606-2.121-6.94 1.5-10 1.518-.443 2.685.224 3.5 2 .586-.209 1.086-.543 1.5-1 .14 2.021.307 3.855.5 5.5 3.128.058 3.462-.775 1-2.5 2.746-3.386 3.412-7.053 2-11a7.06 7.06 0 0 0 2.5-2l6.5 4.5-4 1c1.066 1.159.733 1.992-1 2.5zm157-8c1.901 2.435 2.567 5.102 2 8-2.209.606-4.376 1.273-6.5 2-6.207-4.141-5.374-6.641 2.5-7.5.881-.708 1.547-1.542 2-2.5zm11 3c-1.965-.448-2.298-1.448-1-3 2.019.633 2.353 1.633 1 3zm-184-2c-.017 1.528-.684 2.028-2 1.5.544-.717 1.211-1.217 2-1.5zm218 4c-.874-1.025-2.041-1.692-3.5-2-1.162.687-2.328.853-3.5.5 1.467-2.186 3.467-2.852 6-2 1.587.862 3.254 1.529 5 2-1.063 1.188-2.397 1.688-4 1.5zm-221-1c1.513 2.657 1.013 4.99-1.5 7l-.5-2.5c.574-1.607 1.24-3.107 2-4.5zm-67 11c9.338-9.573 20.672-12.74 34-9.5a7.29 7.29 0 0 1 3 2c-13.01-1.158-25.344 1.342-37 7.5zm264-6c-.617.111-1.117.444-1.5 1-1.529-1.229-2.696-2.729-3.5-4.5 2.272.077 3.938 1.243 5 3.5zm-16-2c2.146.196 2.312 1.196.5 3-.483-.948-.649-1.948-.5-3zm11 4h-2c-.724-3.949-.058-3.949 2 0zm30-3c5.813-.156 6.146.511 1 2-.798-.457-1.131-1.124-1-2zm6 2c2.705 1.353 5.038 3.187 7 5.5-2 .667-4 .667-6 0l2-2c-1.884-.216-3.551-.883-5-2 .916-.278 1.582-.778 2-1.5zm-158 2c.689-1.274 1.523-1.274 2.5 0 1.751 1.712 2.418 3.712 2 6-1.363-2.184-2.863-4.184-4.5-6zm5 0c2.657-1.501 4.99-1.001 7 1.5a4.64 4.64 0 0 1-2.5 2.5c-1.209-1.683-2.709-3.017-4.5-4zm8-1c2.483.23 2.983.897 1.5 2-1.03-.336-1.53-1.003-1.5-2zm58 0c2.064.187 4.064.687 6 1.5-2.381.739-4.381.239-6-1.5zm68 0a10.51 10.51 0 0 1 3 2.5c-1.989.519-2.989-.314-3-2.5zm-174 1c-1.546 2.43-3.879 3.764-7 4 1.836-2.088 4.169-3.421 7-4zm21 4c-.039-1.859.794-3.192 2.5-4l5 7c.749 1.135.583 2.135-.5 3-1.932-2.607-4.265-4.607-7-6zm4-3c2.873-1.248 5.373-.581 7.5 2 .414-.457.914-.791 1.5-1 2.137 1.238 3.471 3.071 4 5.5-2.798.561-4.631-.606-5.5-3.5l-1 4c-1.666-2.831-3.832-5.165-6.5-7zm184 1a10.12 10.12 0 0 1-4-1.5c1.852-.773 3.186-.273 4 1.5zm-192 1 4 1c1.7 1.71 3.033 3.71 4 6l-1 1c-1.219-.763-2.219-1.763-3-3-.498 1.103-.831 2.103-1 3a41.78 41.78 0 0 0-12-6.5c1.237-.232 2.237-.732 3-1.5a16.06 16.06 0 0 0 5-2c.798.457 1.131 1.124 1 2zm125 8a24.94 24.94 0 0 0-7 .5c3.139 1.018 6.305 1.851 9.5 2.5l1-1c1.876 1.109 3.709 2.109 5.5 3-3.636-.094-7.136-.761-10.5-2a89.21 89.21 0 0 1-15.5.5c-2.384-1.41-4.05-3.41-5-6a43.08 43.08 0 0 0-9-2c2.327-1.815 4.827-1.982 7.5-.5 3.53 2.403 7.364 4.236 11.5 5.5 1.444.781 2.777.614 4-.5-6.727-3.695-13.727-6.862-21-9.5l2-.5c8.812 4.156 17.812 7.489 27 10zm9-9c1.685-1.344 3.352-1.177 5 .5-1.765.64-3.432.473-5-.5zm11 3c2.295-1.428 4.295-.928 6 1.5-2.34.748-4.34.248-6-1.5zm20 8c-2.582-2.497-4.082-5.497-4.5-9 2.571 2.476 4.071 5.476 4.5 9zm-28-8c5.033.018 7.033 2.351 6 7 .029 1.529.696 2.696 2 3.5-.948.483-1.948.649-3 .5v-3c-3.632-1.233-5.298-3.899-5-8zm56 4c-2.235-.295-4.235.039-6 1a8.8 8.8 0 0 1-5-1.5l3-1a7.29 7.29 0 0 1-3-2c1.669-.122 3.335.212 5 1l-1 1c2.536.186 4.869.686 7 1.5zm-273-3v1c-.667 0-1 .333-1 1-1.105 1.1-2.438 1.767-4 2 1.085-2.087 2.751-3.42 5-4zm32 8c2.634 1.158 2.467 2.158-.5 3-1.333-5.333-2.667-5.333-4 0a13.92 13.92 0 0 0-4 3 8.01 8.01 0 0 0-5.5-2c.203-4.302.536-8.302 1-12 2.601.78 4.601 2.446 6 5-.825.886-1.825 1.219-3 1-.162 2.027.005 4.027.5 6a25.84 25.84 0 0 1 5.5-6.5c-1.262-2.436-.595-2.936 2-1.5 1.13 1.122 1.797 2.456 2 4zm258-8c3.297-.171 3.631.495 1 2-.798-.457-1.131-1.124-1-2zm-290 1h2c-.473 1.406-1.473 2.073-3 2v-1c.667 0 1-.333 1-1zm70 0c1.894.548 3.56 1.548 5 3-2.233.516-3.9-.484-5-3zm-126 28c0-.667-.333-1-1-1 11.003-10.629 23.669-18.795 38-24.5a1474.73 1474.73 0 0 0-37 25.5zm128-21v2a42.81 42.81 0 0 0-7.5-3c-.861 1.248-1.361 2.581-1.5 4-2.441-2.463-2.607-5.129-.5-8a15.28 15.28 0 0 0 4.5 1.5c-1.154.914-.987 1.747.5 2.5.308-.808.808-1.475 1.5-2 3.75.59 5.916 2.59 6.5 6-1.039-1.21-2.206-2.21-3.5-3zm107-2a31.29 31.29 0 0 1-10-1.5c3.885-2.354 7.218-1.854 10 1.5zm-184-2c.342.838 1.008 1.172 2 1-5.302 4.47-10.136 9.47-14.5 15a589.04 589.04 0 0 0-46 68c.641-8.589 3.307-16.589 8-24a87.45 87.45 0 0 0 6-11c4.739-3.237 8.572-7.237 11.5-12 2.63-4.952 5.963-9.285 10-13 .359 2.331 1.026 2.165 2-.5a.91.91 0 0 0-1-.5 3 3 0 0 1 2-2c-1.093-2.067-.593-2.734 1.5-2 .2-1.82 1.034-3.153 2.5-4 1.525-3.203 3.858-5.87 7-8 2.177 1.004 2.511.338 1-2 .457-.798 1.124-1.131 2-1 1.647-1.826 3.647-3.16 6-4zm272 0c2.801 1.235 5.468 2.735 8 4.5a12.49 12.49 0 0 1-7 0c-2.048-1.226-2.381-2.726-1-4.5zm-213 3c-.667 0-1 .333-1 1l-4 1c1.817-2.342 4.15-3.509 7-3.5-.916.278-1.582.778-2 1.5zm-1 1c.667 0 1-.333 1-1 .65.304 1.317.637 2 1 1.85-.742 2.516-1.742 2-3 1.638 1.205 1.971 2.538 1 4-2.265 1.147-4.598 1.314-7 .5.556-.383.889-.883 1-1.5zm23-3c2.222-.322 4.056.345 5.5 2-1.048.642-1.714 2.309-2 5a103.79 103.79 0 0 1-3.5-7zm103 1c1.904.238 3.238 1.238 4 3-1.904-.238-3.238-1.238-4-3zm-135 1c-.283.789-.783 1.456-1.5 2-.528-1.316-.028-1.983 1.5-2zm-4 3c-.79 1.294-1.79 2.461-3 3.5l1 1a30.64 30.64 0 0 0-8.5 8.5c-2.905 6.604-6.072 12.937-9.5 19a12.64 12.64 0 0 1-2.5 4c-.692-.525-1.192-1.192-1.5-2 .881-3.43 2.048-6.763 3.5-10 .377-1.442 1.21-2.442 2.5-3 .786-5.504 3.286-9.17 7.5-11 1.457-2.158 3.29-3.991 5.5-5.5-1.333-.667-1.333-1.333 0-2 1.578-1.094 3.245-1.928 5-2.5zm249 0h5v3c2.792.122 4.792 1.456 6 4-5.193-.088-8.86-2.422-11-7zm-234 3c-2.435 2.208-2.435 4.708 0 7.5-1.917-.027-3.584-.861-5-2.5-.692.525-1.192 1.192-1.5 2-4.723-6.338-2.89-9.171 5.5-8.5.556.383.889.883 1 1.5zm8-2c2.657.938 4.99 2.938 7 6 .365 4.921-.635 5.255-3 1l-1 1c1.044 2.268 1.211 4.601.5 7-.351-5.068-2.851-8.402-7.5-10 0-.667-.333-1-1-1 .246-2.97 1.912-4.303 5-4zm174 4c-1.544.203-2.878.87-4 2-.886-.825-1.219-1.825-1-3 .838-.342 1.172-1.008 1-2 2.489-1.245 3.822-.245 4 3zm31-3c4.183-1.311 8.516-1.311 13 0-3.75.839-8.083.839-13 0zm-159 38c-5.026 2.5-10.359 4.5-16 6-2.708-1.81-3.542-4.143-2.5-7-1.49-1.228-2.99-1.228-4.5 0a8.43 8.43 0 0 1 .5-4l8-16 1 3c1.755-1.17 2.755-2.837 3-5 1.14 2.518 2.306 2.518 3.5 0 1.941-.369 3.775-1.036 5.5-2 .241-2.789.908-5.456 2-8 1.065 8.988 2.732 8.988 5 0a8.43 8.43 0 0 1 .5 4c3.852.011 5.685-1.989 5.5-6a22.98 22.98 0 0 0 2 5 22.98 22.98 0 0 1 2-5l1 4a22.98 22.98 0 0 0 2-5c1.761 3.685 3.428 3.352 5-1 1.107 6.039 2.773 5.706 5-1 1.022 6.035 2.689 6.369 5 1 2 4 4 4 6 0 .936 5.113 2.269 5.113 4 0 1.667 5.333 3.333 5.333 5 0a12.93 12.93 0 0 1 .5 5c5.645.627 11.311 1.127 17 1.5a121.34 121.34 0 0 1-19.5 17.5c-.311-2.056-.811-4.056-1.5-6-.825-.886-1.825-1.219-3-1a41.73 41.73 0 0 1 1 9 24.2 24.2 0 0 1-10 2.5c-2.157-1.085-2.324-2.251-.5-3.5.16-3.398-1.007-6.398-3.5-9-2.003 7.43-7.003 12.43-15 15-4.991-7.004-6.991-6.337-6 2-2.452 1.893-5.119 3.226-8 4zm128-35c2.257-.462 4.257-1.462 6-3 2.753 2.835 2.587 5.501-.5 8-1-1.333-2-1.333-3 0-1.419-.96-2.919-1.793-4.5-2.5 2.435-.075 3.102-.908 2-2.5zm-182-2 3 2c.667 0 1 .333 1 1 1.912 3.495 3.579 7.162 5 11-.363.683-.696 1.35-1 2a135.28 135.28 0 0 1-4.5-9 13.92 13.92 0 0 0-4-3c-.195-1.319-.028-2.653.5-4zm15 4c.59-4.868 1.59-4.534 3 1l-1 2c-.676-1.102-1.342-2.102-2-3zm-79 3c.827.939 1.494.605 2-1 .91-1.519 1.743-3.185 2.5-5a36.23 36.23 0 0 1 0 12l-1 1a12.93 12.93 0 0 1-.5-5c-3.001.262-5.668 1.096-8 2.5 1.537-1.707 3.204-3.207 5-4.5zm52-6c-.543 3.546-2.543 5.879-6 7-1.021-.502-1.188-1.168-.5-2 2.287-1.554 4.454-3.221 6.5-5zm203 0c1.685.684 2.685 2.017 3 4 1.787.816 3.454 1.816 5 3-1.578.572-3.078.906-4.5 1-2.691-2.342-3.857-5.009-3.5-8zm34 2c-1.808.009-3.475-.491-5-1.5 2.174-.877 3.841-.377 5 1.5zm-74 1c.635 3.962-.698 5.295-4 4-7.42.638-14.087 3.138-20 7.5-4.538 1.907-9.205 2.907-14 3l14-8c.717-1.652 1.05-3.152 1-4.5l3 2c5.579-2.249 11.246-4.249 17-6l3 2zm11 0v1c-1.517.011-2.684.677-3.5 2-.464-.594-.631-1.261-.5-2 1.205-1.638 2.538-1.971 4-1zm0 0c.417-.624 1.084-.957 2-1 2.975.639 5.975 1.139 9 1.5-2.724.27-5.391.77-8 1.5-.765-1.112-1.765-1.779-3-2zm-173 0c2.125.868 2.291 1.868.5 3-1.683-.676-1.85-1.676-.5-3zm163 0c2.971 1.598 3.971 3.931 3 7-2.27.625-2.604-.375-1-3-1.13-1.122-1.797-2.456-2-4zm93 0c1.333.667 2.333 1.667 3 3a7.11 7.11 0 0 1-5-1c.346-1.196.846-1.196 1.5 0 .464-.594.631-1.261.5-2zm-22 3c2.572-.756 4.905.077 7 2.5l-1 1c2.119.098 3.786.931 5 2.5-1.574 1.131-3.241 1.298-5 .5-1.498-2.664-3.498-4.83-6-6.5zm-275 0c1.422.209 2.755.709 4 1.5 1.098.77 1.098 1.603 0 2.5.739-.131 1.406.036 2 .5-.32 7.189-2.32 8.022-6 2.5.241-3.499-.592-3.832-2.5-1-.798-1.759-.631-3.426.5-5 1.505 2.631 2.171 2.297 2-1zm12 0c.876-.131 1.543.202 2 1-1.365 1.441-2.865 2.774-4.5 4 0-2.708.833-4.374 2.5-5zm202 0c-.473 1.406-1.473 2.073-3 2 .473-1.406 1.473-2.073 3-2zm3 0c3.875-.415 7.542.085 11 1.5-7.777 5.55-15.61 10.384-23.5 14.5.409-2.977 1.742-5.643 4-8 3.333-2.167 6.166-4.834 8.5-8zm-178 1 3 1.5c-.399 2.602-.399 5.102 0 7.5-4.845-1.976-5.845-4.976-3-9zm197 9c.333 1.333.667 1.333 1 0 .739.131 1.406-.036 2-.5-1.491-2.621-2.158-5.455-2-8.5h3c-.092 3.561.241 7.228 1 11a9.86 9.86 0 0 1-6-1c.124-.607.457-.94 1-1zm-193-8c5.885-1.138 8.885 1.529 9 8-5.523.357-8.523-2.31-9-8zm10 0c2.134 1.203 3.468 3.037 4 5.5-2.505-.707-3.838-2.54-4-5.5zm158 0c-.528 1.221-1.195 2.387-2 3.5-1.316.528-1.983.028-2-1.5 1.105-1.1 2.438-1.767 4-2zm45 0c1.422.25 2.422 1.083 3 2.5-.727 1.399-1.227 2.899-1.5 4.5-.977-2.24-1.477-4.573-1.5-7zm-223 4c1.548.321 2.215 1.321 2 3a12.93 12.93 0 0 1-5-.5c1.442-.377 2.442-1.21 3-2.5zm171 0c.876-.131 1.543.202 2 1-2.791 4.089-3.458 3.755-2-1zm59 1c3.748 2.23 4.581 5.23 2.5 9 .107-3.057-1.06-5.391-3.5-7 .363-.683.696-1.35 1-2zm-323 1c.667 0 1 .333 1 1-2.79 4.128-6.457 7.128-11 9a64.1 64.1 0 0 1 7-8c.333 1.333.667 1.333 1 0zm308 0c1.588 1.135 1.921 2.469 1 4a4.85 4.85 0 0 1-1-4zm40 2c-2.25.319-4.25-.181-6-1.5 2.275-.405 4.275.095 6 1.5zm-35 0c1.946.754 2.779 2.088 2.5 4-1.481-.971-2.315-2.304-2.5-4zm-222 2c1.068-.934 2.401-1.268 4-1 .284 2.377.284 4.544 0 6.5-4.511.311-8.844.977-13 2a67.09 67.09 0 0 1 10-7 .91.91 0 0 0-1-.5zm6-1a51.57 51.57 0 0 0 7 1c.514 2.012.68 4.012.5 6a26.67 26.67 0 0 0-6.5-1.5c-.17-1.57-.503-3.403-1-5.5zm14 0c2.505 1.686 3.338 4.019 2.5 7-1.252-1.501-2.252-3.168-3-5-1.263 6.593-2.763 6.593-4.5 0a112.33 112.33 0 0 0 5-2zm-67 1c.651.591 1.318 1.257 2 2 2.102.021 4.268-.313 6.5-1 2.731 4.425 1.565 7.091-3.5 8a20.2 20.2 0 0 1-1.5-6l-3 5c-1.812-2.546-1.978-5.212-.5-8zm-5 1c1.32 2.78 1.82 5.78 1.5 9-1.353-1.185-2.52-2.519-3.5-4 .956-1.575 1.623-3.242 2-5zm269 0c1.289 1.748 2.789 2.081 4.5 1 .9 1.27 2.066 2.27 3.5 3 .979 3.736.979 7.236 0 10.5-1.723-2.386-4.057-4.553-7-6.5-.542-2.763-.875-5.429-1-8zm-246 1c1.073.751 1.24 1.751.5 3l-5 3c-.667-1-.667-2 0-3 1.878-.553 3.378-1.553 4.5-3zm63 32c-1.119 2.287-2.785 4.121-5 5.5l1 1c-2.443 2.071-3.943 4.571-4.5 7.5l9-7c9.517-8.507 21.017-14.174 34.5-17-6.557 5.114-13.89 8.947-22 11.5-2.876 1.825-4.876 3.992-6 6.5a185.62 185.62 0 0 0 18-5.5 466.18 466.18 0 0 0 33-24.5c.808.308 1.475.808 2 1.5-15.548 17.453-34.881 28.786-58 34a223.05 223.05 0 0 0-30.5 18.5c-1.423 3.426-1.423 6.76 0 10a20.5 20.5 0 0 0 2.5-3.5c3.634-.796 5.634-2.963 6-6.5.648 1.586 1.148 3.253 1.5 5 .615-2.803 1.782-5.136 3.5-7-.912 1.238-1.079 2.572-.5 4 .791-1.245 1.291-2.578 1.5-4 .722.418 1.222 1.084 1.5 2l1-4c.718-.951 1.551-1.117 2.5-.5-1.076 1.726-1.243 3.559-.5 5.5a6.86 6.86 0 0 1 3-5l1 2c2.057-3.548 4.891-6.381 8.5-8.5 4.579-.87 9.245-2.203 14-4 2.363-.589 3.363-2.089 3-4.5a237.26 237.26 0 0 1 31-8.5c6.57-2.732 13.237-5.232 20-7.5-4.774 3.896-10.108 7.063-16 9.5-22.359 7.531-43.359 17.031-63 28.5-.586-.209-1.086-.543-1.5-1l-1 4-1-1c-1.333 2.667-2.667 2.667-4 0-.483.948-.649 1.948-.5 3-6.307 1.975-12.64 4.975-19 9-.586-.209-1.086-.543-1.5-1-.665 3.338-2.332 6.005-5 8-.718-.951-1.551-1.117-2.5-.5-2.543 1.382-4.543 3.215-6 5.5-9.136 2.113-16.803 6.779-23 14l-3-1.5c9.545-7.91 15.379-18.077 17.5-30.5a31.65 31.65 0 0 1 10.5-5.5c12.584-9.247 24.584-19.247 36-30l8.5-8.5c4.379-8.463 8.379-17.129 12-26 .589 2.363 2.089 3.363 4.5 3-.065-2.971.769-5.638 2.5-8 1.715 4.577 1.049 8.911-2 13-5.89 5.557-11.056 11.723-15.5 18.5.594.464 1.261.631 2 .5zm-91-30c.739-.131 1.406.036 2 .5-1.363 1.945-2.197 4.112-2.5 6.5-2.082-2.526-1.916-4.86.5-7zm36 0c.7 3.671.033 7.338-2 11-7.081 2.895-14.247 5.562-21.5 8-.065-2.698 1.102-4.864 3.5-6.5a482.86 482.86 0 0 0 20-12.5zm249 0c.259 2.531 1.593 4.864 4 7l-1 1c-3.032-2.108-4.032-4.775-3-8zm-21 1c2.666-.434 3.833.566 3.5 3-.741-1.141-1.575-1.141-2.5 0-.886-.825-1.219-1.825-1-3zm30 0c2.803 2.114 2.637 4.114-.5 6-.49-2.045-.323-4.045.5-6zm-232 22c-2.039-1.172-3.372-2.838-4-5-2.336 2.822-5.169 3.489-8.5 2-.945-.405-1.612-1.072-2-2-3.011 1.581-5.844 3.247-8.5 5-1.086-.12-1.753-.787-2-2l4-9c2.271-1.184 4.605-2.184 7-3-.86 2.316-1.36 4.649-1.5 7 .9-1.27 2.066-2.27 3.5-3-.364-2.233-1.364-4.066-3-5.5 4.153-2.029 8.486-3.029 13-3 2.692 1.88 3.859 4.38 3.5 7.5a235.76 235.76 0 0 1-11.5-4l-1 1c6.07 2.82 9.737 7.487 11 14zm153-6c-.978-.311-1.645-.978-2-2 1.072-3.683 1.238-7.35.5-11 1.431 4.135 1.931 8.468 1.5 13zm-73 13c2.799-2.844 4.965-6.177 6.5-10 4.853-3.188 8.686-7.355 11.5-12.5 7.171.001 10.171 3.501 9 10.5a162.81 162.81 0 0 1-27 12zm38-22c2.867-1.621 5.2-.954 7 2-3.722 15.557-13.388 24.724-29 27.5a269.52 269.52 0 0 0 25-22.5c1.82-3.594.82-5.928-3-7zm86 5c5.813 4.314 11.147 9.147 16 14.5-6.659-.418-12.992-2.251-19-5.5a104.1 104.1 0 0 1-10-13.5c1-.667 2-.667 3 0 2.806 3.449 6.139 4.949 10 4.5zm-200 0c1.725.343 2.225 1.343 1.5 3-1.039-.744-1.539-1.744-1.5-3zm43 0c1.239.712 1.739 1.712 1.5 3-3.747 4.418-8.08 8.084-13 11-.667-.667-.667-1.333 0-2 4.065-3.895 7.898-7.895 11.5-12zm-47 3c-1.528-.017-2.028-.684-1.5-2 .717.544 1.217 1.211 1.5 2zm0 0c.897-1.098 1.73-1.098 2.5 0l2.5 5.5c-.949.617-1.782.451-2.5-.5-.366-1.952-1.199-3.618-2.5-5zm175 5c.891-2.109 2.058-4.109 3.5-6 .651 3.028-.515 5.028-3.5 6zm47-6c2.254 2.452 4.421 2.452 6.5 0 1.31 4.996 3.31 5.33 6 1 2.435 1.937 2.602 3.77.5 5.5l1 1a20.5 20.5 0 0 1-3.5 2.5c-4.701-2.204-8.201-5.537-10.5-10zm-72 2 4 19c-1.175.219-2.175-.114-3-1a30.5 30.5 0 0 1-5-10.5 37.38 37.38 0 0 0 4-7.5zm3 0c2.16 3.63 2.993 7.63 2.5 12a35.09 35.09 0 0 1-2.5-12zm-126 1c-2.823 8.288-7.656 15.288-14.5 21 1.071-3.475 2.737-6.808 5-10 3.032-3.859 6.198-7.526 9.5-11zm160 0c1.086.12 1.753.787 2 2-.535 2.416-1.535 2.583-3 .5.752-.671 1.086-1.504 1-2.5zm59 6c-1.662 1.485-3.495 2.818-5.5 4-.772-.145-1.439-.478-2-1-.273-1.601-.773-3.101-1.5-4.5 1.272-1.307 2.272-2.807 3-4.5 1.661 2.327 3.661 4.327 6 6zm-269-1c3.631.468 6.965-.199 10-2 3.008 1.044 5.342 2.877 7 5.5-.525.692-1.192 1.192-2 1.5-6.202-2.885-12.035-2.218-17.5 2-.667-1.333-.667-2.667 0-4 1.417-.578 2.25-1.578 2.5-3zm198-2c-.086.996.248 1.829 1 2.5-.594.464-1.261.631-2 .5-1.629-1.696-1.296-2.696 1-3zm6 0c1.837.139 2.17.806 1 2-.798-.457-1.131-1.124-1-2zm69 1c1.585.502 2.085 1.502 1.5 3-1.039-.744-1.539-1.744-1.5-3zm-107 1c1.303 2.855 1.303 5.855 0 9-3.995-2.989-3.995-5.989 0-9zm-144 6c-.992-.172-1.658.162-2 1-.767-.672-1.434-1.505-2-2.5.612-1.303.946-2.47 1-3.5 1.452 1.44 2.452 3.106 3 5zm170-5c.79 1.294 1.79 2.461 3 3.5-.754 5.189-2.921 10.022-6.5 14.5a9.72 9.72 0 0 1-3.5-5.5c2.047-3.464 3.713-7.13 5-11 .336-1.03 1.003-1.53 2-1.5zm3 0h2c-.138 3.786-.805 3.786-2 0zm16 3c-.722 1.051-1.722 1.718-3 2-.216-2.181.617-3.847 2.5-5 .483.948.649 1.948.5 3zm-9-2c.216 2.181-.617 3.847-2.5 5-.741-2.519.092-4.185 2.5-5zm15 0c.304.65.637 1.317 1 2a57.18 57.18 0 0 0-3 6.5c-1.016 2.176-2.682 3.343-5 3.5-.149-1.052.017-2.052.5-3a13.92 13.92 0 0 0 4-3c.037-2.474.87-4.474 2.5-6zm-4 240c-6.085 8.599-12.418 17.099-19 25.5a133.82 133.82 0 0 1-42 16 55.21 55.21 0 0 1 7 3c-2.167.833-3.667 2.333-4.5 4.5-.228-6.067-3.062-7.567-8.5-4.5-1.035 3.611-2.702 4.111-5 1.5.431-3.812-.569-3.812-3 0-3.284 1.157-6.618 1.324-10 .5l45.5-44.5c6.724-8.549 13.224-17.216 19.5-26a48.41 48.41 0 0 0 5-10c-.209-.586-.543-1.086-1-1.5 1.1-.432 1.767.068 2 1.5a107.01 107.01 0 0 1-9.5 22c-4.998 5.363-9.498 11.03-13.5 17-11.041 11.023-22.707 22.023-35 33 6.104-4.259 12.104-8.759 18-13.5a687.77 687.77 0 0 1 32.5-29.5 738.52 738.52 0 0 0 41.5-70h-1c4.796-14.223 9.296-28.557 13.5-43 6.689-33.464 4.022-66.131-8-98l-12-24c6.492 4.281 13.492 6.281 21 6 16.704 19.062 29.037 40.729 37 65a312.09 312.09 0 0 1 4.5 39.5c.213 23.376-8.453 42.709-26 58l-24 14c-1.507.837-2.007 2.004-1.5 3.5 5.634-3.545 11.8-5.712 18.5-6.5 5.547-3.279 10.547-7.279 15-12l4-1c2.179-1.848 4.013-4.015 5.5-6.5l1 1c4.366-6.869 8.532-13.869 12.5-21 1.837-1.338 3.503-2.838 5-4.5 2.361-6.555 4.861-13.055 7.5-19.5-.171 13.514-4.171 25.847-12 37-9.541 11.87-20.707 22.037-33.5 30.5l-28 13c5.619 1.845 11.286 1.679 17-.5l1 2.5a114.17 114.17 0 0 1-3.5 11.5c-8.145 16.683-16.811 32.349-26 47-.768-6.699-2.602-13.032-5.5-19-1.022.355-1.689 1.022-2 2zm64-233c-1.203-1.443-1.703-3.109-1.5-5 2.324 1.275 2.824 2.942 1.5 5zm-223-4a3 3 0 0 1-2 2c0-1.333.667-2 2-2zm154 1v3c-2.38 2.832-4.38 2.499-6-1 .774-1.211 1.607-1.211 2.5 0-.077-1.238.089-2.238.5-3 .917.627 1.917.961 3 1zm-202 0c2.846-.47 5.179.363 7 2.5-5.474 2.296-11.141 3.296-17 3 2.844-2.879 6.178-4.712 10-5.5zm264 8c-.163-2.357.003-4.69.5-7 .414-.457.914-.791 1.5-1 1.731 2.721 2.731 5.388 3 8a3 3 0 0 1-2 2c-.765-1.112-1.765-1.779-3-2zm-51 5c-1.235.221-2.235.888-3 2-1.342-1.402-2.176-1.069-2.5 1l-3.5-5c1.507-1.239 2.674-.905 3.5 1 .691-2.391 1.691-2.391 3 0 .513-2.527 1.68-4.693 3.5-6.5-1.453-1.713-1.286-3.213.5-4.5.35 4.432 1.183 8.432 2.5 12-1.92 3.693-3.253 3.693-4 0zm-204-11c1.495-.085 2.495.581 3 2-1.198.44-2.365.773-3.5 1-.47-1.077-.303-2.077.5-3zm239 1c1.068-.934 2.401-1.268 4-1 .162 2.027-.005 4.027-.5 6l-3.5-5zm-270 0c.996-.086 1.829.248 2.5 1 5.154 17.001 3.987 17.335-3.5 1 .363-.683.696-1.35 1-2zm293 0c1.965.448 2.298 1.448 1 3-.886-.825-1.219-1.825-1-3zm-79 1c3.691.853 6.358 3.02 8 6.5a23.65 23.65 0 0 0-3 3.5 58.87 58.87 0 0 1-9-5c1.904-1.266 3.237-2.933 4-5zm-206 13a20.33 20.33 0 0 1 3-8l13.5-3c.536 2.067.036 3.901-1.5 5.5l-10 1c-2.187 1.025-3.854 2.525-5 4.5zm18-11c1.143.408 2.143 1.075 3 2-1.896 1.139-2.896.473-3-2zm-92 1a149.93 149.93 0 0 1-2.5 17c-.665-6 .169-11.667 2.5-17zm352 1c.648 1.586 1.148 3.253 1.5 5 2.066-2.798 3.566-2.465 4.5 1l-2.5 5c-1.044-1.123-1.71-2.456-2-4-.667-1.333-1.333-1.333-2 0-.632-2.465-2.132-4.131-4.5-5-.886-.825-1.219-1.825-1-3 1.89-.203 3.39.463 4.5 2 .383-.556.883-.889 1.5-1zm8-1c1.149.291 1.816 1.124 2 2.5l-.5 2.5a42.47 42.47 0 0 1-1.5-5zm-120 1h6c-.149 1.052.017 2.052.5 3 .739-1.074 1.739-1.741 3-2 1.235 1.115 2.402 1.115 3.5 0 1.172.419 2.172 1.085 3 2 1.235 5.943 3.235 11.61 6 17-.056 1.237-.556 2.237-1.5 3-1.441-.76-2.941-1.426-4.5-2-4.619 1.558-8.452 4.224-11.5 8-3.791-1.8-6.957-4.3-9.5-7.5l5-21.5zm26 12a21.34 21.34 0 0 0-1.5-9l-3 4c-1.622-2.659-.789-4.659 2.5-6 1.441 1.365 2.774 2.865 4 4.5l-1 1c2.578 2.348 2.245 4.181-1 5.5zm9-9c3.067 1.621 5.901 3.621 8.5 6-1 5.333-3.333 6-7 2l-1-5c-.893 1.211-1.726 1.211-2.5 0l2-3zm35 1c.06-.543.393-.876 1-1 2.459 3.27 2.125 3.603-1 1zm56 3c-.722.418-1.222 1.084-1.5 2-1.564-1.87-1.564-3.87 0-6 .791 1.245 1.291 2.578 1.5 4zm-78-2c2.705 1.19 4.372 3.356 5 6.5-.145.772-.478 1.439-1 2 3.861 1.981 3.861 3.814 0 5.5a19.43 19.43 0 0 1-7-4.5c1.201-2.234 2.535-4.401 4-6.5-.627-.917-.961-1.917-1-3zm-206 21c-1.293 1.342-2.126 3.009-2.5 5-.9-1.27-2.066-2.27-3.5-3 1.14-1.578 1.64-3.244 1.5-5-1.292 1.291-2.458 1.291-3.5 0 1.274-.689 1.274-1.523 0-2.5-1.316-.528-1.983-.028-2 1.5-2.452-1.95-2.452-4.116 0-6.5 3.044-.359 3.378-1.026 1-2 4.242-6.62 9.908-8.787 17-6.5.214 1.644-.12 3.144-1 4.5 1.172.419 2.172 1.085 3 2-1.698-.497-3.365-.33-5 .5l-4-6c-1.28 2.224-.947 4.224 1 6-1.843.255-3.843.422-6 .5 6.17 1.441 6.337 2.941.5 4.5-1.387-1.801-2.887-2.468-4.5-2l8 9zm184-14c-1.1 1.105-1.767 2.438-2 4-2.635-1.929-3.468-4.595-2.5-8a25.14 25.14 0 0 0 4.5 4zm43-4c2.307.905 2.307 2.238 0 4-.792-1.2-.792-2.533 0-4zm-3 1c1.301 1.956.801 3.623-1.5 5 .134-1.689.634-3.356 1.5-5zm-34 1c2.593 1.254 4.927 2.92 7 5-1.649 2.15-3.482 4.15-5.5 6-4.967-3.311-5.467-6.978-1.5-11zm27 0c.739-.131 1.406.036 2 .5l-3.5 3.5-1.5-1.5c1.071-.852 2.071-1.685 3-2.5zm69 12c-1.568 1.369-3.401 2.369-5.5 3l-1.5-1.5a8.43 8.43 0 0 1 4-.5 61.71 61.71 0 0 0-1-8.5c-.046-1.728.454-3.228 1.5-4.5 1.989 3.753 2.822 7.753 2.5 12zm-59-1a68.77 68.77 0 0 0 3-6.5c-.705-1.557-.039-2.723 2-3.5a11.38 11.38 0 0 1 2 2.5 161.4 161.4 0 0 1-6 10.5c-.886-.825-1.219-1.825-1-3zm52-10c.624.417.957 1.084 1 2a57.56 57.56 0 0 0-3 8c-1.196-1.059-1.863-2.393-2-4l4-6zm-8 2c.789.283 1.456.783 2 1.5-1.316.528-1.983.028-2-1.5zm-292 2c.709-.904 1.709-1.237 3-1 .149 1.052-.017 2.052-.5 3-.708-.881-1.542-1.547-2.5-2zm289-1c.767.672 1.434 1.505 2 2.5-1.561.188-2.228-.645-2-2.5zm-262 1c1.175-.219 2.175.114 3 1-1.552 1.298-2.552.965-3-1zm280 7c.814-2.131 1.314-4.464 1.5-7 1.036 2.992 1.536 5.825 1.5 8.5-1.76 1.793-2.76 1.293-3-1.5zm-104-6c1.322-.17 2.489.163 3.5 1 .557 2.115 1.391 4.115 2.5 6-1.523 1.783-3.523 2.449-6 2 1.135-3.312 1.135-6.312 0-9zm45 5c-1.208-.734-2.541-1.067-4-1v-4h4zm-27-4c2.901 1.292 5.234 3.292 7 6-2.928 6.504-5.595 6.504-8 0a4.85 4.85 0 0 1-4-1c2.021-1.355 3.688-3.021 5-5zm-197 1c4.693 1.622 5.193 4.289 1.5 8-1.252-2.514-1.752-5.18-1.5-8zm-5 3c1.068-.934 2.401-1.268 4-1 .219 1.175-.114 2.175-1 3l-3-2zm216 3 4 5c-1.696 1.864-3.529 3.531-5.5 5a18.25 18.25 0 0 0-5.5-4.5 107.8 107.8 0 0 1 5-8.5c1.419.505 2.085 1.505 2 3zm8-3c1.465.906 2.465 2.239 3 4 .825.886 1.825 1.219 3 1a7.11 7.11 0 0 1-1 5l-3.5-5c-2.085 1.147-3.585.48-4.5-2 .84-1.235 1.84-2.235 3-3zm-235 2c3.397.237 5.23 1.904 5.5 5-.837-1.507-2.004-2.007-3.5-1.5l3 4-1 1.5a18.36 18.36 0 0 1-4-9zm205 1c3.674 1.482 7.007 3.648 10 6.5-1.433 3.978-4.1 5.145-8 3.5-1.997-3.236-2.664-6.569-2-10zm-192 2c1.924.211 2.257.877 1 2l-1-2zm172 3c-.039-1.256.461-2.256 1.5-3a64.5 64.5 0 0 1 6.5 4c2.484-1.874 4.984-2.874 7.5-3 1.895 2.151 2.395 4.484 1.5 7-1.502-.583-2.835-1.416-4-2.5a100.29 100.29 0 0 1-14-1.5c.124-.607.457-.94 1-1zm60-2c.057 1.109.39 2.109 1 3-.543.06-.876.393-1 1 1.776.815 2.443 1.982 2 3.5-2.766 7.207-3.433 6.874-2-1-2.207-2.118-2.207-4.284 0-6.5zm-10 2c3.755 2.377 3.921 5.044.5 8-3.024-2.578-3.191-5.245-.5-8zm64 0a43.86 43.86 0 0 1 4.5 4c.743 1.941.576 3.774-.5 5.5 2.085 1.526 2.085 3.36 0 5.5a214.99 214.99 0 0 1-6-12.5c.556-1.011 1.222-1.844 2-2.5zm-142 2c1.249 1.278 2.749 2.278 4.5 3 .617.949.451 1.782-.5 2.5-7.523 3.774-15.523 7.441-24 11-3.597 3.29-7.597 5.79-12 7.5.256-2.412-.744-4.079-3-5 9.983-3.616 19.65-8.116 29-13.5.876-1.586 1.876-3.086 3-4.5 1.422 1.277 2.422.943 3-1zm93 0c.809.969 1.809 1.802 3 2.5-2.132.918-2.799 2.251-2 4a64.5 64.5 0 0 1-4 6.5l-1-1.5a23.72 23.72 0 0 0 4-11.5zm-31 6c-2.584-.548-3.584-2.215-3-5 1.052-.149 2.052.017 3 .5 1.424 2.218 3.424 3.718 6 4.5-1.829 3.572-3.829 3.572-6 0zm12 6c-3.375 6.973-5.375 6.639-6-1 2.061-1.827 3.394-4.16 4-7 1.22.387 1.887 1.22 2 2.5-1.327 2.453-2.161 4.953-2.5 7.5.708-.881 1.542-1.547 2.5-2zm-266-5c-5.708-.008-6.041.492-1 1.5l3 3c-4.042.662-7.375-.505-10-3.5.645-1.146 1.478-2.146 2.5-3a61.16 61.16 0 0 1 5.5 2zm125-2c3.35-.165 6.683.002 10 .5-.808.308-1.475.808-2 1.5-3.278.521-6.611.687-10 .5-3.901.676-7.401 2.176-10.5 4.5-1.049-1.017-2.216-1.184-3.5-.5l-10.5 5.5-.5-1c8.283-5.649 17.283-9.315 27-11zm150 0c.597 2.12.931 4.287 1 6.5l-3.5 6.5c-.651-1.735-.485-3.402.5-5-.525-.692-1.192-1.192-2-1.5.734-2.561 2.067-4.727 4-6.5zm53 3c2.82 1.978 4.32 4.645 4.5 8-1.777-2.559-3.277-5.226-4.5-8zm-62 4c-.039-1.256.461-2.256 1.5-3 .585 1.498.085 2.498-1.5 3zm89-3c1.238 4.119 2.071 8.453 2.5 13 1.073 17.349 1.239 34.682.5 52h-3v-65zm-356 5c.131.876-.202 1.543-1 2-2.803-3.75-2.47-4.416 1-2zm32-2c.934 1.068 1.268 2.401 1 4-.863.963-1.53.963-2 0 .746-1.236 1.079-2.57 1-4zm247 1c2.501.011 2.668.678.5 2-.464-.594-.631-1.261-.5-2zm6 0c2.501.011 2.668.678.5 2-.464-.594-.631-1.261-.5-2zm-284 1c1.679-.215 2.679.452 3 2-1.21-.432-2.21-1.099-3-2zm119 0c2.47 2.562 2.47 5.395 0 8.5l1 1a47.35 47.35 0 0 0-7 5.5c-1.134-4.137-.634-8.137 1.5-12 1.409-1.281 2.909-2.281 4.5-3zm133 0c2.968.126 4.968 1.626 6 4.5-1.616.615-2.949 1.615-4 3 1.049.492 2.049.326 3-.5 1.211.774 1.211 1.607 0 2.5a12.93 12.93 0 0 1-5 .5c-.719-2.573-1.719-5.073-3-7.5 1.071-.852 2.071-1.685 3-2.5zm15 0c.876-.131 1.543.202 2 1 .283 3.232.283 6.565 0 10 2.553 2.462 2.553 4.795 0 7-2.197-3.738-4.864-7.071-8-10 2.434-2.421 4.434-5.088 6-8zm-246 1a285.14 285.14 0 0 1 2 9.5l-1.5 1.5a60.93 60.93 0 0 1-.5-11zm110 1c2.778-.478 4.778.522 6 3a149.79 149.79 0 0 0-6 8.5 81.1 81.1 0 0 1-17.5 7.5 3.43 3.43 0 0 1-2.5-1.5c3.804-3.81 8.137-6.81 13-9 2.545-2.707 4.879-5.54 7-8.5zm114 0c2.036 2.726 3.703 5.726 5 9-.308.808-.808 1.475-1.5 2-1.697-.864-2.863-2.197-3.5-4-.084-2.375-.084-4.709 0-7zm32 0c.767.672 1.434 1.505 2 2.5-1.211 1.113-1.211 2.28 0 3.5-1.86 5.22-3.527 5.053-5-.5 1.348-1.683 2.348-3.517 3-5.5zm13 0c.934 1.068 1.268 2.401 1 4-2.12-.903-2.454-2.237-1-4zm-292 2c.886-1.276 1.886-1.276 3 0-1.049 2.545-2.049 2.545-3 0zm338 0c1.243-1.237 2.243-.904 3 1l-1 1c-.682-.743-1.349-1.409-2-2zm-213 4c.185-1.696 1.019-3.029 2.5-4 .279 1.912-.554 3.246-2.5 4zm125 9c-3.082-1.575-5.749-3.742-8-6.5-1.525-1.009-3.192-1.509-5-1.5v-3c2.177-.086 4.177-.753 6-2a64.71 64.71 0 0 0 4.5 9c1.067.691 2.234 1.191 3.5 1.5-.752.671-1.086 1.504-1 2.5zm38-6h-2c-1.096-2.512-.262-4.512 2.5-6 .49 2.045.323 4.045-.5 6zm-284-5c.789.283 1.456.783 2 1.5-1.316.528-1.983.028-2-1.5zm289 0c1.141 3.14 1.308 6.473.5 10a42.36 42.36 0 0 0-1.5-8.5c.556-.383.889-.883 1-1.5zm-235 41c3.541-7.086 6.541-14.42 9-22 5.158-2.406 10.491-4.573 16-6.5 3.591-.789 7.091-.622 10.5.5.864-3.597 2.031-3.43 3.5.5 14.013 6.027 28.013 5.694 42-1l15.5-9.5 1.5 1c-1.108 3.612-2.442 7.112-4 10.5l1 1c-2.157 1.912-4.491 3.579-7 5a229.4 229.4 0 0 0-19.5 1.5 9.26 9.26 0 0 1-2.5-2c-1.864 1.493-4.03 2.16-6.5 2-6.068-.782-12.068-1.115-18-1-.155 2.356-.155 4.689 0 7-2.686-7.929-8.186-11.096-16.5-9.5a57.56 57.56 0 0 0-8 3c-5.905 6.397-11.571 12.897-17 19.5zm277-38c4.96 3.232 6.46 7.565 4.5 13-2.191-4.072-3.691-8.406-4.5-13zm-100 2c.751-1.073 1.751-1.24 3-.5 4.629 2.905 8.796 6.405 12.5 10.5 1.301 1.865 1.635 3.865 1 6-4.019-6.852-9.519-12.186-16.5-16zm51 0c-.778 3.859-2.445 4.525-5 2 .769-3.124 2.436-3.791 5-2zm2 0c.891.761 1.558 1.761 2 3-.457.798-1.124 1.131-2 1zm-27 1c2.476 1.621 2.642 3.621.5 6-3.102-1.837-3.269-3.837-.5-6zm15 0c1.832.64 2.165 1.64 1 3-.886-.825-1.219-1.825-1-3zm-253 1c1.297 1.349 1.13 2.682-.5 4-.579-1.428-.412-2.762.5-4zm136 0c1.884.212 3.217 1.212 4 3-6.17 7.017-7.503 6.017-4-3zm182 1c1.221-.965 2.554-.798 4 .5a54.63 54.63 0 0 1-2 4.5 112.33 112.33 0 0 0-2-5zm-53 1c1.078 2.238.578 4.238-1.5 6-2.124-2.734-1.624-4.734 1.5-6zm-9 1c1.77 1.356 3.103 3.189 4 5.5a11.38 11.38 0 0 1-2 2.5c-3.781-2.149-4.448-4.816-2-8zm-29 1c1.705 1.035 3.372 1.035 5 0a18.68 18.68 0 0 1 6 6.5c-2.176.163-4.009.996-5.5 2.5-.495-1.973-.662-3.973-.5-6-2.433.227-4.099-.773-5-3zm16 0a32.6 32.6 0 0 1 4 4.5c-1.974 5.984-3.974 5.984-6 0 .914-1.406 1.58-2.906 2-4.5zm23 10c-1.259-3.185-.426-5.852 2.5-8a16.24 16.24 0 0 1 0 8c-.77-1.098-1.603-1.098-2.5 0zm-15-6c2.822 1.289 3.489 3.289 2 6-2.89-1.337-3.557-3.337-2-6zm-107 1c1.455 1.81 1.288 3.477-.5 5-.78-1.887-.613-3.554.5-5zm72 0a46.45 46.45 0 0 1 7 3c-2.203.087-4.37.087-6.5 0-.483-.948-.649-1.948-.5-3zm44 2c1.282 1.208 1.282 2.542 0 4-2.294-1.125-2.294-2.459 0-4zm-36 1c1.946.754 2.779 2.088 2.5 4-1.481-.971-2.315-2.304-2.5-4zm13 0c3.041-.121 4.708 1.379 5 4.5a20.44 20.44 0 0 1-3.5 6.5 18.68 18.68 0 0 1-6.5-6c2.021-1.355 3.688-3.021 5-5zm11 0c2.282 1.567 2.949 3.567 2 6-2.89-1.337-3.557-3.337-2-6zm74 0c.647.774.98 1.774 1 3 .423 2.682-.577 3.848-3 3.5a119.78 119.78 0 0 0 2-6.5zm-324 8 3.5-7c1.487.655 2.653 1.655 3.5 3l-3.5 14a18.33 18.33 0 0 0-4-6c-.765-1.566-.598-2.899.5-4zm268-6c.67 6.156-.663 6.656-4 1.5 1.066-2.012 2.4-2.512 4-1.5zm-238 0c5.991.06 8.991 3.226 9 9.5a9.62 9.62 0 0 1-1.5 4.5c.211-6.256-2.289-10.923-7.5-14zm231 5c-2.061 1.827-3.394 4.16-4 7-.6-2.076-.933-4.076-1-6 .736-2.041 1.569-4.041 2.5-6 1.883 1.153 2.716 2.819 2.5 5zm-42 0c-1.863-.346-2.696-1.346-2.5-3 1.417.578 2.25 1.578 2.5 3zm4 2c2.477-.62 2.477-1.62 0-3 1.276-1.145 2.609-1.145 4 0 .554 3.447.554 6.78 0 10-.605-2.797-1.938-5.13-4-7zm-10-3a25.25 25.25 0 0 1 9 5.5c-3.619-.81-6.619-2.643-9-5.5zm34 0c5.592 1.125 7.426 4.458 5.5 10-5.064 4.601-8.23 3.434-9.5-3.5 1.213-2.262 2.546-4.429 4-6.5zm-28 1c1.88-.271 3.213.396 4 2-1.653-.16-2.986-.826-4-2zm13 0c2.646 1.979 4.979 4.312 7 7a26 26 0 0 1-7 5 20.48 20.48 0 0 1 0-12zm29 0c2.501.011 2.668.678.5 2-.464-.594-.631-1.261-.5-2zm12 1c1.033 7.269.533 14.603-1.5 22-.311-2.056-.811-4.056-1.5-6 .525-.692 1.192-1.192 2-1.5.227-3.886-.107-7.886-1-12 1.256-.417 1.923-1.25 2-2.5zm-9 1c1.294.79 2.461 1.79 3.5 3 1.868 11.486.202 12.486-5 3-.748-2.34-.248-4.34 1.5-6zm-50 6c-4.475-.768-8.975-1.434-13.5-2a49.24 49.24 0 0 0-13 3c-.09-2.268 1.077-3.768 3.5-4.5 8.198-1.378 15.864-.211 23 3.5zm108 2c-.128-2.155.372-4.155 1.5-6 .405 2.275-.095 4.275-1.5 6zm-381 9c6.282 2.329 12.615 2.496 19 .5 2.283-6.137.283-10.804-6-14 4.252.568 7.086 3.068 8.5 7.5 1.336 4.4.336 8.066-3 11a99.1 99.1 0 0 0-13.5-1.5c-2.084-.697-3.751-1.864-5-3.5zm381-9c-.969.809-1.802 1.809-2.5 3-1.205-2.034-1.372-4.034-.5-6 1.235.84 2.235 1.84 3 3zm-108-2c3.221.396 5.888 1.729 8 4-3.045-.779-5.711-2.113-8-4zm11 8c.963.863.963 1.53 0 2-10.365-5.288-21.365-7.788-33-7.5 6.333-.667 12.667-.667 19 0 4.764 1.751 9.43 3.585 14 5.5zm14-6c2.422.585 4.089 2.085 5 4.5-3.548 5.65-7.215 5.817-11 .5l6-5zm14 0c1.086.12 1.753.787 2 2-2.867 4.975-4.867 10.309-6 16l-8-7c2.136-2.46 4.802-4.127 8-5l4-6zm16 0c2.146.196 2.312 1.196.5 3-.483-.948-.649-1.948-.5-3zm-10 1c.996-.086 1.829.248 2.5 1l2.5 5.5c-1.922 1.42-3.255 3.253-4 5.5-1.236-.746-2.57-1.079-4-1 .535-3.809 1.535-7.476 3-11zm-37 1c2.832.442 3.832 1.775 3 4l-3-4zm6 0a69.64 69.64 0 0 0 4 8l-1.5 1c-3.183-2.405-4.017-5.405-2.5-9zm-35 5c8.393.924 16.727 2.258 25 4 1.162 4.967 1.329 9.967.5 15-2.874-7.205-8.041-12.038-15.5-14.5a133.74 133.74 0 0 0-11-3c.556-.383.889-.883 1-1.5zm125 2c.749 1.031 1.415 2.198 2 3.5a42.36 42.36 0 0 0-1.5 8.5c-.499-3.986-.666-7.986-.5-12zm-50 3c-.791 1.809-.791 3.809 0 6-6.78-1.268-7.447-3.768-2-7.5 1.316-.528 1.983-.028 2 1.5zm-105 0c-.131.739.036 1.406.5 2 .654-1.196 1.154-1.196 1.5 0-1.112.765-1.779 1.765-2 3-2.618 1.713-5.285 2.046-8 1 .226-3.264 1.726-4.264 4.5-3-.874-3.291.293-4.291 3.5-3zm58 0c2.938.351 4.938 1.851 6 4.5.112 1.662-.554 2.829-2 3.5-1.236-.746-2.57-1.079-4-1zm14 2c-.131-.739.036-1.406.5-2 2.333.913 4.166 2.413 5.5 4.5-1 .667-2 .667-3 0-.873-1.045-1.873-1.878-3-2.5zm0 0c-1.082 2.479-.082 3.979 3 4.5-.837 1.011-1.17 2.178-1 3.5 1.175-.219 2.175.114 3 1-.535 1.601-1.535 2.101-3 1.5-2.388-2.05-4.388-4.384-6-7 .446-1.726 1.279-3.226 2.5-4.5.383.556.883.889 1.5 1zm19 0a36.83 36.83 0 0 1 7 4.5c-2.292 1.382-4.625 1.882-7 1.5-1.019-1.96-1.019-3.96 0-6zm-134 1c.722.418 1.222 1.084 1.5 2l1-2c4.028 3.916 5.528 8.583 4.5 14 2.933 2.238 2.599 3.238-1 3 .096 8.371-2.071 9.038-6.5 2-.882-3.289-1.548-6.623-2-10a15.83 15.83 0 0 1-3.5 5.5c-.832.688-1.498.521-2-.5 1.638-2.804 3.471-5.471 5.5-8l1 1c.492-1.049.326-2.049-.5-3 1.13-1.122 1.797-2.456 2-4zm150 0c.647.774.98 1.774 1 3-.436 2.679-.936 5.345-1.5 8l-1.5-3a12.71 12.71 0 0 0 2-8zm-162 13c1.271-1.609 2.271-3.442 3-5.5.983-.591 1.65-.257 2 1-1.59 3.013-2.757 6.18-3.5 9.5-4.655 5.311-8.822 10.978-12.5 17-2.399-.216-4.399.951-6 3.5a87.45 87.45 0 0 1-11 6 33.23 33.23 0 0 1-10 14c-2 .667-4 .667-6 0-4.634-7.293-9.968-13.959-16-20a20.64 20.64 0 0 0-6-2c3.163-1.715 6.33-2.548 9.5-2.5 2.748 3.234 5.248 6.568 7.5 10a28.53 28.53 0 0 0 4.5 9c.837 1.507 2.004 2.007 3.5 1.5-2.457-2.915-4.124-6.248-5-10l5.5-18.5a21.83 21.83 0 0 1 5-6c.996 3.931 1.496 7.931 1.5 12-1.468 6.93-2.634 13.93-3.5 21-2 1-2 2 0 3 3.297-6.415 7.463-12.249 12.5-17.5l10.5-4.5c.627-2.086.127-2.419-1.5-1a17.31 17.31 0 0 1-5-8c2.084 1.577 4.084 3.41 6 5.5.667.667 1.333.667 2 0-1.134-3.633-3.467-6.133-7-7.5a18.18 18.18 0 0 1-4-8l1-2a159.93 159.93 0 0 1 4.5 9 52.76 52.76 0 0 1 2-13c1.147.958 2.147.625 3-1 .667 2.667 1.333 2.667 2 0 .273 1.829 1.107 3.329 2.5 4.5-.558 7.327-1.725 14.494-3.5 21.5 4.58-6.566 6.913-13.9 7-22 1.026-4.222 3.193-7.722 6.5-10.5.832-.688 1.498-.521 2 .5-1.617 3.514-2.617 7.181-3 11zm55-11h5c.219 1.175-.114 2.175-1 3-1.299-1.194-2.632-2.194-4-3zm79 3 1.5-3c.725 1.657.225 2.657-1.5 3zm-87-2 2 3c-5.305 3.48-9.971 7.647-14 12.5l-13 8.5a99.22 99.22 0 0 1 5 0c-4.924 3.424-10.257 3.924-16 1.5-.928-.388-1.595-1.055-2-2a51.82 51.82 0 0 0 .5-9.5c1.245 4.741 4.079 8.074 8.5 10 4.08-2.081 6.08-5.414 6-10 3.544-.612 6.877-1.779 10-3.5a207.63 207.63 0 0 0 13-10.5zm27 0c12.865-2.158 24.032.508 33.5 8 2.415 3.095 3.248 6.429 2.5 10-2.964-8.131-8.631-13.297-17-15.5-9.111-1.89-18.111-1.39-27 1.5-1.196-.346-1.196-.846 0-1.5a127.96 127.96 0 0 0 8-2.5zm63 6v-5h4c-.247 3.005.753 5.505 3 7.5-2.267 1.608-3.267.775-3-2.5zm-46-2c-3.339-.39-6.673-.89-10-1.5 3.648-.837 6.981-.337 10 1.5zm22-2c1.382 1.301 3.048 2.134 5 2.5-3.242.283-3.576 1.117-1 2.5a14.84 14.84 0 0 0 3.5-4l1.5 1.5c-2.174 3.37-5.174 5.203-9 5.5zm34 1c1.603-.188 2.937.312 4 1.5-3.594 5.998-4.927 5.498-4-1.5zm-91 2c1.073.751 1.24 1.751.5 3a25.55 25.55 0 0 1-6.5 5.5c-4.938 1.162-9.271 3.329-13 6.5l-3-1.5c1.785-1.163 3.785-1.83 6-2 2.154-1.32 3.654-3.153 4.5-5.5 2.21 1.249 4.376 1.082 6.5-.5-1.366-2.438-.866-2.938 1.5-1.5 1.402-1.145 2.569-2.478 3.5-4zm97 0c.543.06.876.393 1 1-1.079 3.518-1.913 7.185-2.5 11-.454-2.036-1.287-3.87-2.5-5.5.75-2.571 2.083-4.738 4-6.5zm-64 5 7 3.5c1.323.816 1.989 1.983 2 3.5-24.342-12.175-23.342-14.008 3-5.5 3.126 2.45 5.459 5.45 7 9-3.445-1.407-6.445-3.741-9-7l-8.5-4.5c-.383.556-.883.889-1.5 1zm34-4c4.896 2.12 5.229 4.953 1 8.5l-3 1c.522 2.289-.145 4.456-2 6.5-2.343 1.225-4.177.559-5.5-2-.497-2.31-.663-4.643-.5-7 4.465-.81 7.798-3.143 10-7zm14 0v7c-1.109.057-2.109.39-3 1-2.022-3.956-1.022-6.623 3-8zm18 3c2.474 2.687 2.641 5.687.5 9-1.407-3.001-1.574-6.001-.5-9zm-21 5-8 16-1.5 1-5.5-5.5c1.385-3.639 3.718-5.139 7-4.5-1.064-2.965-.064-5.298 3-7 1.667-1.166 3.334-1.166 5 0zm3-1c1.846 2.205 3.513 4.539 5 7-.722.418-1.222 1.084-1.5 2-.71-1.473-1.876-2.14-3.5-2zm8 0c2.952.899 4.119 2.899 3.5 6-1.442-1.891-2.609-3.891-3.5-6zm-46 14c-3.275 2.876-5.275 6.543-6 11-1.163-5.674-4.163-10.174-9-13.5a57.06 57.06 0 0 0-18-9c12.039-1.651 22.706 1.349 32 9 .752.671 1.086 1.504 1 2.5zm-1-10c1.528.017 2.028.684 1.5 2-.717-.544-1.217-1.211-1.5-2zm59 1c1.868 1.286 2.034 2.619.5 4a8.43 8.43 0 0 1-.5-4zm-206 23c-.948-6.026-.448-12.026 1.5-18 3.511-4.287 4.844-3.621 4 2-.984 5.791-2.817 11.124-5.5 16zm-69-18c-1.756 1.052-2.423 2.719-2 5-2.17 3.899-2.504 8.066-1 12.5-.687 3.271-2.02 6.105-4 8.5-4.153-6.539-4.986-13.539-2.5-21 2.043-1.079 3.376-2.746 4-5l1 2c.637-1.803 1.803-3.136 3.5-4 .798.457 1.131 1.124 1 2zm18 5c-.838.342-1.172 1.008-1 2-.904.709-1.237 1.709-1 3-2.398 3.118-3.565 6.784-3.5 11-3.896 7.665-6.063 6.832-6.5-2.5.808-8.442 4.641-15.276 11.5-20.5 1.583 2.199 1.75 4.532.5 7zm73-7c2.072 3.112 4.405 6.112 7 9-3.729 2.44-6.895 5.44-9.5 9 .93-5.924 1.763-11.924 2.5-18zm130 0c2.501.326 3.668 1.659 3.5 4-1.376-1.205-2.542-2.538-3.5-4zm7 9c.011-1.517.677-2.684 2-3.5-1.26-1.814-1.26-3.647 0-5.5 1.148 1.649 2.481 3.149 4 4.5-1.614 2.127-3.614 3.627-6 4.5zm25-9c.767.672 1.434 1.505 2 2.5-1.561.188-2.228-.645-2-2.5zm-255 7c1.037-1.43 1.704-3.097 2-5 3.571-1.257 4.738.076 3.5 4a87.45 87.45 0 0 0-6 11c-.388-3.349-.221-6.683.5-10zm266-6c4.758 1.765 4.758 4.099 0 7-1.075-2.311-1.075-4.644 0-7zm-248 11c.904-.709 1.237-1.709 1-3 .838-.342 1.172-1.008 1-2 1.058-1.1 1.892-2.434 2.5-4-.013 3.397-.679 6.73-2 10-1.941 4.054-2.775 3.72-2.5-1zm245-2c-2.482-1.304-3.649-3.304-3.5-6 1.351 1.519 2.851 2.852 4.5 4-.363.683-.696 1.35-1 2zm-230 18a38.53 38.53 0 0 0-1 8c-.047 1.5.619 2.5 2 3a85.16 85.16 0 0 1 17-14l1 1c-2.132 3.631-4.799 6.798-8 9.5-5.088 3.083-9.588 6.917-13.5 11.5-2.883 5.099-5.217 10.433-7 16-1.185 2.059-2.352 2.226-3.5.5a36.87 36.87 0 0 0 2-5.5c-5.13 6.54-11.797 8.54-20 6 .645-1.146 1.478-2.146 2.5-3 .749-1.135.583-2.135-.5-3-.728 1.693-1.728 3.193-3 4.5-.949.617-1.782.451-2.5-.5-.264-10.164.903-20.164 3.5-30 .838-.342 1.172-1.008 1-2 .838-.342 1.172-1.008 1-2 .838-.342 1.172-1.008 1-2 1.337.815 2.337 1.982 3 3.5 1.759.798 3.426.631 5-.5 4.748-6.494 9.248-13.161 13.5-20 1.751-2.418 3.751-3.751 6-4 .958 2.575 1.458 5.241 1.5 8a113.57 113.57 0 0 0-1 15zm158-22c.996.086 1.829-.248 2.5-1l11 8c2.701 2.814 3.035 5.814 1 9a59.61 59.61 0 0 0-5-9c-3.145-2.476-6.312-4.81-9.5-7zm33 7c-2.246.71-4.58 1.21-7 1.5a20.79 20.79 0 0 0-1 2.5c-1.114-1.223-1.281-2.556-.5-4l3.5-7c2.308-1.214 4.641-1.214 7 0-1.077 2.229-1.744 4.563-2 7zm29-7c-.861 1.886-1.861 3.72-3 5.5l1 1c-1.208.921-2.542 1.421-4 1.5 1.322-2.524 2.488-5.19 3.5-8 .77-1.098 1.603-1.098 2.5 0zm-16 0c6.055 2.809 6.555 6.476 1.5 11-4.949-3.372-5.449-7.039-1.5-11zm19 2c.739-.131 1.406.036 2 .5-.698.971-.698 2.137 0 3.5l-5 11-1-1.5c2.034-4.303 3.367-8.803 4-13.5zm-26 1c-.343 1.725-1.343 2.225-3 1.5l3-1.5zm-57 2c12.413.373 23.079 4.873 32 13.5a45.13 45.13 0 0 0-5.5 9.5c-6.946-10.62-16.446-17.787-28.5-21.5.916-.278 1.582-.778 2-1.5zm99 1c3.297-.171 3.631.495 1 2-.798-.457-1.131-1.124-1-2zm-42 1c8.285 5.728 7.618 8.395-2 8-.393-3.013.274-5.68 2-8zm17 1c.369 2.493-.297 3.16-2 2a3 3 0 0 1 2-2zm-24 1c.617.111 1.117.444 1.5 1 .27 2.724.77 5.391 1.5 8-2.667 1.333-5.333 1.333-8 0 .654-1.615 1.154-3.282 1.5-5 1.376-1.205 2.542-2.538 3.5-4zm22 1a16.51 16.51 0 0 1-2.5 5c-1.839-2.717-1.006-4.384 2.5-5zm-240 10c-.838.342-1.172 1.008-1 2-.838.342-1.172 1.008-1 2-.838.342-1.172 1.008-1 2-5.994 8.225-8.994 17.558-9 28-4.614-1.17-7.448-4.17-8.5-9-1.791-6.907-3.125-13.907-4-21-4.494 9.948-4.494 19.948 0 30 4.856 4.736 10.689 7.569 17.5 8.5 12.605 2.689 24.771 1.523 36.5-3.5l1.5 1c-1.481.98-2.815 2.147-4 3.5a115.39 115.39 0 0 1-20.5 5.5 101.85 101.85 0 0 1-26.5-6.5c-8.542-4.909-12.542-12.409-12-22.5 1.789-7.561 4.123-14.894 7-22 5.801-.885 10.801.448 15 4 .283.789.783 1.456 1.5 2a14.97 14.97 0 0 1 3.5-3c1.078-3.708 2.745-7.042 5-10 .154 2.719.154 5.719 0 9zm258-6c-.171-3.297.495-3.631 2-1-.457.798-1.124 1.131-2 1zm-18-2c2.501.011 2.668.678.5 2-.464-.594-.631-1.261-.5-2zm12 1c.577-1.273 1.243-1.273 2 0-.47.963-1.137.963-2 0zm-219 64c-16.285 6.373-32.618 6.539-49 .5l-9-6.5c13.426 7.099 27.759 9.599 43 7.5 8.641-1.894 15.474-6.394 20.5-13.5 9.517 14.838 22.017 18.004 37.5 9.5 5.415-9.578 3.415-17.245-6-23 1.721-.739 3.387-1.573 5-2.5-.209-.586-.543-1.086-1-1.5 4.072-.658 8.072-.325 12 1 5.3 3.575 10.133 7.742 14.5 12.5a711.6 711.6 0 0 1 12 27c.41-14.694-3.09-28.361-10.5-41 5.662 5.83 11.162 11.83 16.5 18-.981-4.302-2.814-8.302-5.5-12 10.454 3.976 16.288 11.643 17.5 23-.435-15.455-7.268-27.288-20.5-35.5.556-.383.889-.883 1-1.5a148.58 148.58 0 0 1 20.5 15c-.565-2.465-1.732-4.798-3.5-7a395.41 395.41 0 0 1-16-17.5l1.5-.5 58 15c.617-.949.451-1.782-.5-2.5-4.193-3.258-8.526-6.258-13-9 5.987-2.14 8.154-6.307 6.5-12.5-1.813-4.066-4.98-6.066-9.5-6 7.841-1.265 15.174.235 22 4.5 5.128 3.297 9.794 7.13 14 11.5-2.468 2.972-4.302 6.306-5.5 10-4.002.061-6.835 1.895-8.5 5.5.828.915 1.828 1.581 3 2l-8 3 3 1-8 4c.457.414.791.914 1 1.5-7.059 1.138-7.392 2.638-1 4.5-1.046 1.539-2.379 1.705-4 .5l-6 1.5c1.071 1.825.404 2.992-2 3.5-.896-1.006-1.562-1.006-2 0 1.185 1.353 2.519 2.52 4 3.5-4.589-1.415-8.589-.415-12 3l3 1c-2.856 1.153-5.856 1.986-9 2.5l-1 1a26.09 26.09 0 0 0 5 3.5l-9 1c-2.968 3.147-6.302 5.814-10 8l8 1c-5.504-.105-10.671 1.061-15.5 3.5 1.485 3.361 4.319 5.194 8.5 5.5-4.122.561-7.955-.272-11.5-2.5a1430.37 1430.37 0 0 1-55.5 27.5c-10.137 3.837-19.804 2.837-29-3-12.334-10.505-21.334-23.338-27-38.5 11.058.316 21.391-2.017 31-7zm174-64c1.225.652 1.892 1.819 2 3.5-.433 3.405-2.433 5.238-6 5.5-1.083-.865-1.249-1.865-.5-3 1.752-1.851 3.252-3.851 4.5-6zm50 4c-.577 1.273-1.243 1.273-2 0 .47-.963 1.137-.963 2 0zm2 0c.886-1.276 1.886-1.276 3 0-.733.587-1.733.587-3 0zm-288 0c1.121 1.589.954 3.256-.5 5-.64-1.765-.473-3.432.5-5zm88 0c.996-.086 1.829.248 2.5 1l3.5 8.5c-.509 1.169-1.342 2.002-2.5 2.5-1.477-3.93-2.644-7.93-3.5-12zm97 0c5.276.793 7.109 3.793 5.5 9-3.685 3.477-7.851 3.977-12.5 1.5-2.736-1.362-5.069-3.196-7-5.5l.5-1c2.498 1.917 5.165 3.584 8 5 2.692.121 5.525-.212 8.5-1l1-2c-2.172-.705-4.172-1.705-6-3l2-3zm72 1h4c.165 3.35-.002 6.683-.5 10-2.381.935-4.881 1.268-7.5 1a32.46 32.46 0 0 1 .5-8c.985-1.314 2.152-2.314 3.5-3zm20 6c-.763-.768-1.763-1.268-3-1.5 1.349-.772 2.182-1.939 2.5-3.5.5 1.833 1.667 3 3.5 3.5l-3 1.5zm-195-4c1.773.814 2.273 2.148 1.5 4-3.147 2.968-5.814 6.302-8 10-1.206-3.347-.206-5.68 3-7 1.368-1.493 1.535-2.993.5-4.5 1.071-.852 2.071-1.685 3-2.5zm-86 1c1.773.814 2.273 2.148 1.5 4-.791-1.245-1.291-2.578-1.5-4zm241 1c.876-.131 1.543.202 2 1a14.97 14.97 0 0 1-3 3.5c.948.483 1.948.649 3 .5a4.85 4.85 0 0 1-1 4c-1.39-1.703-2.89-2.37-4.5-2-.612 2.532-2.112 3.365-4.5 2.5.455-2.312 1.455-4.312 3-6l-1-1 6-2.5zm9 0a8.43 8.43 0 0 1 4 .5c-1.28 2.132-1.28 4.298 0 6.5-1.847 1.33-3.347.997-4.5-1-1.11 1.537-2.61 2.203-4.5 2 .833-2.252.833-4.419 0-6.5 1.882-.198 3.548-.698 5-1.5zm-253 6c.577-1.273 1.243-1.273 2 0-.47.963-1.137.963-2 0zm56 30c2.019-6.372 4.852-12.372 8.5-18a129.01 129.01 0 0 0 16-13c.315 1.408-.018 2.741-1 4-5.743 7.145-10.743 14.812-15 23-1.894 3.344-4.727 4.678-8.5 4zm225-31c.789.283 1.456.783 2 1.5-1.316.528-1.983.028-2-1.5zm-191 1c.754 2.523 1.42 5.189 2 8l-3.5 16c-1.025-5.169-1.859-10.336-2.5-15.5.702-3.181 2.036-6.014 4-8.5zm144 0c1.126 1.358 1.126 2.692 0 4-.43-1.212-.43-2.545 0-4zm36 1c1.798 1.612 3.798 3.112 6 4.5-1.68.034-3.18.201-4.5.5-1.269-1.405-1.769-3.071-1.5-5zm22 0c1.273.577 1.273 1.243 0 2-.963-.47-.963-1.137 0-2zm-293 1c1.207.689 2.541.855 4 .5-.906 2.447-1.739 4.947-2.5 7.5a99.9 99.9 0 0 0-1.5-8zm285 0c2.414.906 3.247 2.572 2.5 5-1.372-1.41-2.205-3.077-2.5-5zm-40 2c1.113 1.446 1.28 3.113.5 5-.654-1.196-1.154-1.196-1.5 0 1.54 1.032 2.04 2.365 1.5 4-.388-.928-1.055-1.595-2-2l-5 3a114.38 114.38 0 0 0 .5-8c2.51.446 4.51-.22 6-2zm12 0c1.285 3.089 1.951 6.422 2 10h-9v-8c2.652.09 4.985-.576 7-2zm-24 3c-.667 0-1 .333-1 1-1.213-.997-1.046-1.997.5-3 .464.594.631 1.261.5 2zm30-2c3.767.733 3.934 2.067.5 4-1.511-1.064-1.677-2.397-.5-4zm5 0c2.459 2.259 2.292 4.592-.5 7-.018-2.297.149-4.631.5-7zm11 0c1.837.139 2.17.806 1 2-.798-.457-1.131-1.124-1-2zm74 0c2.501.011 2.668.678.5 2-.464-.594-.631-1.261-.5-2zm-333 22c-3.59-1.088-6.09-3.421-7.5-7-1.711-4.547-2.378-9.214-2-14 2.495 7.323 5.661 14.323 9.5 21zm212-19c.667 0 1-.333 1-1 1.15-1.35 1.817-1.184 2 .5-1.023 2.177-1.19 4.344-.5 6.5-1.626.597-3.459.597-5.5 0 .87-2.126 1.87-4.126 3-6zm59-2c-.23 2.483-.897 2.983-2 1.5.336-1.03 1.003-1.53 2-1.5zm64 9c1.395 1.148 1.228 2.148-.5 3-2.407-3.295-3.407-6.962-3-11 1.117 1.449 1.784 3.116 2 5l1-4c1.057 1.719 1.89 3.553 2.5 5.5-.544.717-1.211 1.217-2 1.5zm-269-5c.519 6.294 1.519 12.627 3 19l1 1c6.362-3.549 12.695-3.716 19-.5 4.329 4.965 4.995 10.299 2 16-9.866.149-17.366-4.017-22.5-12.5-5.767-7.192-6.601-14.859-2.5-23zm260 0c1.748 1.289 2.081 2.789 1 4.5 2.682 2.317 2.515 4.484-.5 6.5-.353-1.172-.187-2.338.5-3.5-.199-2.448-1.199-4.281-3-5.5a3 3 0 0 1 2-2zm-348 7c-1.121-1.589-.954-3.256.5-5a20.2 20.2 0 0 1 1.5 6c.158 1.819-.509 3.152-2 4-.732-1.381-.732-3.048 0-5zm345-2c.131.876-.202 1.543-1 2-.896-1.006-1.562-1.006-2 0 2.405 2.142 3.738 4.809 4 8h-3c.295-4.351-1.705-6.184-6-5.5-5.055 2.003-6.888 5.503-5.5 10.5-1.043-2.333-1.876-4.666-2.5-7a51.22 51.22 0 0 0 4-2.5l-1-1c3.752-2.293 7.586-4.46 11.5-6.5.278.916.778 1.582 1.5 2zm-103 0h6a19.37 19.37 0 0 0 1 8c-2.928.984-5.928 1.317-9 1 .416-3.083 1.083-6.083 2-9zm127 0c1.855-.228 2.688.439 2.5 2a64.23 64.23 0 0 1-9 10c.809-4.612 2.976-8.612 6.5-12zm-89 1c1.431.582 2.764 1.415 4 2.5-1.868 2.828-4.034 5.328-6.5 7.5-.944-.763-1.444-1.763-1.5-3 .967-2.594 2.3-4.927 4-7zm-49 1a12.93 12.93 0 0 1 5 .5c-1.247 1.458-1.247 2.958 0 4.5-2.216 1.306-4.549 1.806-7 1.5.897-2.087 1.564-4.254 2-6.5zm36 0c.739-.131 1.406.036 2 .5a17.84 17.84 0 0 1-4.5 5.5c.483-2.037 1.316-4.037 2.5-6zm19 2c.781-2.128 1.781-2.295 3-.5-2.406 4.208-4.24 8.708-5.5 13.5-.45-4.645.384-8.978 2.5-13zm-27-1c1.585.502 2.085 1.502 1.5 3-1.883 2.524-4.383 3.858-7.5 4v-6c2.235.295 4.235-.039 6-1zm-258 12c-2.198-.091-2.531.575-1 2-1.265-1.014-1.931-2.514-2-4.5-.37-5.547.63-5.88 3-1-.671.986-.671 2.153 0 3.5zm328-7c-.488 3.211.179 6.044 2 8.5-.808.308-1.475.808-2 1.5a22.53 22.53 0 0 1 3 4c.586-.209 1.086-.543 1.5-1 1.301 1.902 1.968 3.902 2 6a14.97 14.97 0 0 1-3.5-3c-.925 1.141-1.759 1.141-2.5 0-.492 1.049-.326 2.049.5 3-.891 1.09-1.891 1.09-3 0-1.083-.865-1.249-1.865-.5-3 2.852-1.407 3.018-2.741.5-4-.156-4.264.511-8.264 2-12zm10 1c3.833 1.167 3.833 2.333 0 3.5l1 1c-.948.483-1.948.649-3 .5-.108-2.014.558-3.68 2-5zm8 5c-1.701.711-2.701 2.045-3 4-2.403-.107-4.236.893-5.5 3-.692-.525-1.192-1.192-1.5-2 3.718-1.55 6.218-4.217 7.5-8 1.045.873 1.878 1.873 2.5 3zm-325-2c1.256-.039 2.256.461 3 1.5-1.498.585-2.498.085-3-1.5zm62 0c3.079 3.771 5.246 8.104 6.5 13 4.702 5.1 10.536 7.6 17.5 7.5-14.519.896-22.519-5.938-24-20.5zm144 0h8v7c-3.018.165-6.018-.002-9-.5.923-2.041 1.256-4.208 1-6.5zm18 0h3c-.745 6.047-4.079 8.047-10 6 1.247-1.542 1.247-3.042 0-4.5 2.536-.186 4.869-.686 7-1.5zm7 3c-.228-1.855.439-2.688 2-2.5-.566.995-1.233 1.828-2 2.5zm19-2c.543.06.876.393 1 1-1.959 1.248-3.459 2.915-4.5 5l-1.5-1.5c1.563-1.736 3.23-3.236 5-4.5zm-48 1c1.984 3.361.984 5.028-3 5a8.43 8.43 0 0 0 .5 4c.414-.457.914-.791 1.5-1 1.333 2 1.333 4 0 6-1.333-1.333-2.667-1.333-4 0l-1-2a55.94 55.94 0 0 0 2.5-10c1.113-.805 2.279-1.472 3.5-2zm37 5c.326-2.501 1.659-3.668 4-3.5-1.205 1.376-2.538 2.542-4 3.5zm86 0c-1.395 1.315-2.395.981-3-1 .996.086 1.829-.248 2.5-1 .464.594.631 1.261.5 2zm-346-1c2.843 2.692 4.009 6.026 3.5 10-2.011 2.592-3.844 2.425-5.5-.5-.494-1.462-.827-2.962-1-4.5.14-1.53.807-2.53 2-3l1-2zm245 8c.188-1.603-.312-2.937-1.5-4a8.19 8.19 0 0 1-2.5 4c1.063 1.866.396 2.366-2 1.5.486-2.027.486-4.193 0-6.5a41.73 41.73 0 0 0 9-1c.039 2.589-.961 4.589-3 6zm102-6c1.282 1.208 1.282 2.542 0 4-1.126-1.308-1.126-2.642 0-4zm-88 1c-.891 2.109-2.058 4.109-3.5 6-.149-2.696 1.018-4.696 3.5-6zm-32 1h8v7h-8zm95 4c-.188-1.603.312-2.937 1.5-4 .348 1.64-.152 2.973-1.5 4zm21-4c1.213.997 1.046 1.997-.5 3-.47-1.077-.303-2.077.5-3zm-133 4c1.528.017 2.028.684 1.5 2-3.811 1.466-4.311.8-1.5-2zm128 1c1.768-1.007 3.101-.341 4 2l-1 1c-1.235-.84-2.235-1.84-3-3zm-332 1c2.352 2.126 2.019 4.126-1 6l-1-.5a8.01 8.01 0 0 0 2-5.5zm315 0a51.57 51.57 0 0 1-1 7h3v3c-1.052-.149-2.052.017-3 .5l3 3c-2.651.153-4.984.987-7 2.5l-1.5 3c-.654 1.196-1.154 1.196-1.5 0 1.326-6.975 3.992-13.308 8-19zm12 0c1.291 1.042 1.291 2.208 0 3.5l1.5 1.5a6.8 6.8 0 0 1 1.5-3c4 3 4 6 0 9a6.8 6.8 0 0 1-1.5-3l-1 2c-4.081-2.957-4.248-6.29-.5-10zm-118 2c6-1.333 8.333 1 7 7a41.54 41.54 0 0 1-8-1 19.22 19.22 0 0 1 1-6zm28 0c1.273.577 1.273 1.243 0 2-.963-.47-.963-1.137 0-2zm-36 5c.364-3.345 2.031-4.345 5-3-1.284 1.13-2.117 2.463-2.5 4-.902-.243-1.735-.577-2.5-1zm19-4c2.891.903 5.891 1.236 9 1-.573 6.57-3.906 8.57-10 6-.202-2.45.131-4.783 1-7zm-228 1c1.987.664 3.654 1.831 5 3.5-.753 1.487-1.586 1.654-2.5.5l-1 2-1.5-6zm240 0c3.693.747 3.693 2.08 0 4-1.126-1.308-1.126-2.642 0-4zm15 3c-.039-1.256.461-2.256 1.5-3 .585 1.498.085 2.498-1.5 3zm-55 0c.017-1.528.684-2.028 2-1.5-.544.717-1.211 1.217-2 1.5zm127 4c-.973-1.568-1.14-3.235-.5-5 1.454 1.744 1.621 3.411.5 5zm-73-3c-.667 2.667-2.333 4.333-5 5 1.333-2 3-3.667 5-5zm18 0c-1.754 5.167-4.754 9.5-9 13 2.617-4.614 5.617-8.947 9-13zm-73 1c1.465 2.046 1.132 3.88-1 5.5 1.388.889 1.222 1.389-.5 1.5-1.5-.167-2.333-1-2.5-2.5 1.518-1.351 2.851-2.851 4-4.5zm131 0c1.282 1.208 1.282 2.542 0 4-1.126-1.308-1.126-2.642 0-4zm-115 1a76.16 76.16 0 0 1 8.5 2c.067 2.235-.433 4.402-1.5 6.5a34.04 34.04 0 0 0-7.5 1.5c-.388-3.349-.221-6.683.5-10zm-208 1c2.034 1.048 3.367 2.714 4 5-.457.798-1.124 1.131-2 1v2a124.65 124.65 0 0 1-4-4c.346-1.196.846-1.196 1.5 0a8.43 8.43 0 0 0 .5-4zm197 0h7c.352 2.573-.148 4.906-1.5 7-2.041-.923-4.208-1.256-6.5-1a19.22 19.22 0 0 1 1-6zm42 1c-.754 1.946-2.088 2.779-4 2.5.971-1.481 2.304-2.315 4-2.5zm101 0c1.175-.219 2.175.114 3 1-4.112 5.615-8.778 10.781-14 15.5-2.534 1.934-5.201 3.268-8 4 6.171-7.004 12.505-13.837 19-20.5zm-120 1c1.25.077 2.083.744 2.5 2 .718-.951 1.551-1.117 2.5-.5-3.906 4.857-5.573 4.357-5-1.5zm100 1c.876-.131 1.543.202 2 1-1.333 1-1.333 2 0 3-.457.798-1.124 1.131-2 1zm9 1c.739-.131 1.406.036 2 .5-1.416 2.265-3.416 3.431-6 3.5v-3c1.599.268 2.932-.066 4-1zm-319 1c1.175-.219 2.175.114 3 1 4.653 8.244 3.486 10.244-3.5 6-.018-2.297.149-4.631.5-7zm310 3c.608 1.3 1.275 2.633 2 4l-1 2c-2.635-2.474-3.469-5.474-2.5-9 .232 1.237.732 2.237 1.5 3zm-131-2c1.802.815 2.802 2.315 3 4.5-1.75 3.01-4.084 3.343-7 1 .988-2.167 2.321-4 4-5.5zm-187 2c.617-.111 1.117-.444 1.5-1 1.267 1.924 1.267 3.59 0 5a28.21 28.21 0 0 0-1.5-4zm15-1c2.124.531 3.624 1.865 4.5 4a26.67 26.67 0 0 0 1.5 6.5c-1.374 2.899-2.874 3.066-4.5.5a248.79 248.79 0 0 0-1.5-11zm178 2a24.93 24.93 0 0 0 8 1v7c-7.159 1.509-9.826-1.158-8-8zm118 1c.689-1.274 1.523-1.274 2.5 0 .749 1.135.583 2.135-.5 3-.676-1.102-1.342-2.102-2-3zm-88 0c.039 1.256-.461 2.256-1.5 3-.585-1.498-.085-2.498 1.5-3zm6 0c-.754 1.946-2.088 2.779-4 2.5.971-1.481 2.304-2.315 4-2.5zm25 0c-1.744 2.25-3.744 4.417-6 6.5-.667.667-1.333.667-2 0 2.556-3.137 5.223-5.304 8-6.5zm51 0a340.57 340.57 0 0 0 6 10.5c-.876 1.586-1.876 3.086-3 4.5l-2-4c-1.51 3.748-2.677 3.415-3.5-1-.556 2.095-1.056 2.262-1.5.5a16.2 16.2 0 0 1 1.5-3.5c.893 1.211 1.726 1.211 2.5 0-.927-2.122-.927-4.455 0-7zm-308 2c2.971 1.405 4.138 3.739 3.5 7-2.022-1.893-3.188-4.227-3.5-7zm212 1c1.052-.149 2.052.017 3 .5-4.727 7.312-5.727 7.146-3-.5zm-34 1c2.683 1.541 3.516 3.874 2.5 7-4.576-.523-5.41-2.857-2.5-7zm105 0c.624.417.957 1.084 1 2-.866 7.517-3.199 14.517-7 21-.876.131-1.543-.202-2-1l2-4c-.47-.963-1.137-.963-2 0 1.602-6.533 4.269-12.533 8-18zm-276 1c2.928 1.137 3.262 2.47 1 4 1.355 1.175 1.188 2.175-.5 3-.497-2.31-.663-4.643-.5-7zm177 0a24.93 24.93 0 0 0 8 1v5h-10c.104-2.203.77-4.203 2-6zm36 1c.789.283 1.456.783 2 1.5-3.934 2.221-4.601 1.721-2-1.5zm65 1c2.034 5.441 2.367 11.108 1 17-.466-5.185-.799-10.851-1-17zm-90 1c2.027 1.68 4.361 2.847 7 3.5-3.784 1.31-6.118.143-7-3.5zm-185 2c2.162-.917 4.495-.917 7 0 .171 2.988-1.162 4.988-4 6a15.69 15.69 0 0 1-2 4c-1.458-2.221-2.291-4.554-2.5-7 2.032 2.405 3.532 1.905 4.5-1.5l-3-1.5zm19 0c1.255 2.465 2.755 4.132 4.5 5 1.028 3.009 1.695 6.009 2 9-1.71-3.472-3.71-6.805-6-10a8.43 8.43 0 0 1-.5-4zm179 0c1.213.997 1.046 1.997-.5 3-.47-1.077-.303-2.077.5-3zm-189 2c5.163-.393 6.83 1.773 5 6.5-4.34.142-6.006-2.024-5-6.5zm150 1c1.297 1.349 1.13 2.682-.5 4l-1-1c.077 1.238-.089 2.238-.5 3-1.22-.387-1.887-1.22-2-2.5 1.186-1.412 2.519-2.579 4-3.5zm5 0h6c.72 6.138-1.78 8.138-7.5 6-.748-2.34-.248-4.34 1.5-6zm128 3c.733-3.767 2.067-3.934 4-.5-1.182 1.768-2.515 1.935-4 .5zm-118-2a20.81 20.81 0 0 1 6 2c-.468 1.634-1.468 2.8-3 3.5.951.718 1.117 1.551.5 2.5-1.333-1.333-2.667-1.333-4 0-.667-1.667-.667-3.333 0-5 .654 1.196 1.154 1.196 1.5 0-.627-.917-.961-1.917-1-3zm11 0c2.357-.163 4.69.003 7 .5-1.821 2.137-4.154 2.97-7 2.5zm10 3c.011-2.186 1.011-3.019 3-2.5-.873 1.045-1.873 1.878-3 2.5zm0 0c-.017 1.528-.684 2.028-2 1.5.544-.717 1.211-1.217 2-1.5zm-186 4c-.951 1.419-1.284 3.085-1 5-4.758-.383-5.758-2.383-3-6-1.063-1.866-.396-2.366 2-1.5.881.708 1.547 1.542 2 2.5zm263 3c-.128-2.155.372-4.155 1.5-6 .405 2.275-.095 4.275-1.5 6zm-88-5c1.052-.149 2.052.017 3 .5-4.254 6.19-5.254 6.024-3-.5zm107 0c4.793 1.43 5.126 3.596 1 6.5-.948.483-1.948.649-3 .5-.106-2.579.561-4.912 2-7zm-263 1c2.473.447 2.64 1.447.5 3-.483-.948-.649-1.948-.5-3zm126 0c2.797.855 3.464 2.521 2 5-7.212 1.112-7.879-.555-2-5zm-145 1c1.517.011 2.684.677 3.5 2 .311 2.056.811 4.056 1.5 6-1.865 1.166-3.532.833-5-1 3.811-1.238 3.811-1.904 0-2 .571-1.86.571-3.527 0-5zm134 0c.973 1.291 1.973 1.291 3 0 1.083.865 1.249 1.865.5 3-1.016-1.134-1.683-.801-2 1l-1-2c-.718.951-1.551 1.117-2.5.5.881-.708 1.547-1.542 2-2.5zm23 6c-2.164.778-4.33 1.112-6.5 1-.706-2.471-.373-4.805 1-7 1.763 1.444 3.763 2.444 6 3 .74 1.249.573 2.249-.5 3zm-150-4c2.501.011 2.668.678.5 2-.464-.594-.631-1.261-.5-2zm194 2c.017-1.528.684-2.028 2-1.5-.544.717-1.211 1.217-2 1.5zm-180 3c-1.059-1.57-.559-2.903 1.5-4 .3 1.566-.2 2.899-1.5 4zm94-1c1.135-1.588 2.469-1.921 4-1a7.25 7.25 0 0 1-2 2.5c-3.468 1.081-6.468.415-9-2a20.5 20.5 0 0 1 3.5-2.5 10.26 10.26 0 0 0 1.5 4c.683-.363 1.35-.696 2-1zm86-2c-.342.838-1.008 1.172-2 1-.091-2.198.575-2.531 2-1zm-191 0c3.45-.744 5.116.59 5 4h-5zm111 5c1.333-.333 1.333-.667 0-1 1.882-.737 2.548-1.904 2-3.5 1.444-.781 2.777-.614 4 .5-.433 2.691-1.767 4.691-4 6-1.213-.247-1.88-.914-2-2zm41-5c3.088-.303 4.754 1.03 5 4h-3c-.193-3.949-.693-3.949-1.5 0a8.43 8.43 0 0 1-.5-4zm109 0c2.307.905 2.307 2.238 0 4-.792-1.2-.792-2.533 0-4zm-72 1c-3.733 5.24-8.066 10.074-13 14.5-.667.667-1.333.667-2 0l9-11a31.94 31.94 0 0 1 6-3.5zm67 0c.268 1.599-.066 2.932-1 4 0-.667-.333-1-1-1 .432-1.21 1.099-2.21 2-3zm-132 4c-.209 1.422-.709 2.755-1.5 4-1.356-.88-2.856-1.214-4.5-1 .062-5.523 2.729-7.356 8-5.5-.566.995-1.233 1.828-2 2.5zm124-3c2.473.447 2.64 1.447.5 3-.483-.948-.649-1.948-.5-3zm20 1c-1.039 2.031-2.705 3.364-5 4 1.74-1.478 2.573-3.144 2.5-5 .342 2.119 1.175 2.453 2.5 1zm-257 0c3.817 1.433 3.817 3.1 0 5-1.166-1.667-1.166-3.334 0-5zm117 0a51.57 51.57 0 0 1 7 1c1.147 6.867-1.186 8.533-7 5-.748-1.916-.748-3.916 0-6zm-113 2c.997-1.213 1.997-1.046 3 .5-1.077.47-2.077.303-3-.5zm239-1c.667 0 1 .333 1 1 .111.617.444 1.117 1 1.5-5.779 2.269-6.446 1.436-2-2.5zm-161 1c3.294-.241 6.294.592 9 2.5-2.443 3.387-5.776 4.887-10 4.5-.052-2.403.281-4.736 1-7zm46 0c3.072-.317 6.072.016 9 1-1.069 3.203-3.069 4.203-6 3l-3 2c-.42-1.826-.42-3.826 0-6zm-153 1c1.653.16 2.986.826 4 2l2 1c-1.317 2.376-.65 4.043 2 5 .845 1.171 1.511 2.505 2 4-1.871-.359-3.371-1.359-4.5-3-1.662-3.149-3.495-6.149-5.5-9zm18 1c.751-1.073 1.751-1.24 3-.5-.852 1.728-1.852 1.895-3 .5zm242-1c1.773.814 2.273 2.148 1.5 4-1.494 1.247-2.994 1.247-4.5 0 .825-.886 1.825-1.219 3-1zm-247 2c.397-1.025 1.063-1.192 2-.5 1.141 1.617 1.974 3.45 2.5 5.5l1-1c3.3 2.573 2.8 3.74-1.5 3.5-1.252-2.633-2.586-5.133-4-7.5zm237-1c.333 1.333.667 1.333 1 0 2.948 2.575 2.281 4.575-2 6 .135-1.481-.199-3.147-1-5 .457-.798 1.124-1.131 2-1zm27 0c-1.418 2.208-3.418 3.042-6 2.5 1.907-1.122 3.907-1.955 6-2.5zm-246 7c.685-5.703 2.352-6.203 5-1.5-1.525 1.009-3.192 1.509-5 1.5zm92-5c2.314.679 2.647 2.012 1 4-1.223 1.114-2.556 1.281-4 .5.886-1.615 1.886-3.115 3-4.5zm-92 5c-1.395 1.8-3.061 2.134-5 1-.574-1.559-1.24-3.059-2-4.5 2.99-.847 4.324.32 4 3.5zm99-4 6 1a8.43 8.43 0 0 1-.5 4l-1-2a6.8 6.8 0 0 1-1.5 3l-5-2.5c1.473-.71 2.14-1.876 2-3.5zm137 0c1.965.448 2.298 1.448 1 3-.886-.825-1.219-1.825-1-3zm-127 5c-1.282-1.208-1.282-2.542 0-4 1.126 1.308 1.126 2.642 0 4zm-42-3c3.003.488 4.169 2.155 3.5 5-1.73-.009-3.563-.342-5.5-1l2-4zm164 3c-.974 1.135-2.141 2.135-3.5 3 .152-2.019.652-4.019 1.5-6 2.748-.098 3.414.902 2 3zm-119-2 3 1.5c-1.363 1.945-2.197 4.112-2.5 6.5-5.03 4.928-6.697 3.928-5-3 1.333-1.333 2.667-1.333 4 0-.526-1.727-.359-3.394.5-5zm99 0c1.276.886 1.276 1.886 0 3-.587-.733-.587-1.733 0-3zm2 0c2.483.23 2.983.897 1.5 2-1.03-.336-1.53-1.003-1.5-2zm-234 2c1.996-1.188 2.829-.521 2.5 2-.708-.881-1.542-1.547-2.5-2zm36-1c1.964.477 3.298 1.644 4 3.5-1.452 1.845-3.285 3.345-5.5 4.5-4.889-3.736-4.389-6.403 1.5-8zm198 8c-1.773-.814-2.273-2.148-1.5-4 1.333-1.333 2.667-1.333 4 0 1.518-4.455 3.351-4.789 5.5-1l-1 2c-2.481.058-4.815 1.058-7 3zm-130-5c1.145 1.293.811 2.459-1 3.5-1.525 1.009-3.192 1.509-5 1.5-5.012-7.337-3.012-9.004 6-5zm-78-1c2.907 1.815 4.241 4.481 4 8-4.828 2.033-8.162.533-10-4.5 1.757-1.75 3.757-2.916 6-3.5zm139 13c3.408-3.911 7.074-7.745 11-11.5.667-.667 1.333-.667 2 0-3.928 4.436-8.261 8.269-13 11.5zm-153-9-3-1.5c1.657-.725 2.657-.225 3 1.5zm95-2h5c.315 1.726.481 3.393.5 5-1.231.608-2.564.941-4 1-1.973.191-3.473-.476-4.5-2l3-4zm17 0c1.274.689 1.274 1.523 0 2.5-1.225.563-2.225.23-3-1 1.237-.232 2.237-.732 3-1.5zm92 2c-.803.923-.97 1.923-.5 3 1-1.333 2-1.333 3 0 .667-2.667 1.333-2.667 2 0 .216-1.884.883-3.551 2-5 .484 2.413.15 4.746-1 7-2.607.77-5.273 1.437-8 2l-1.5-1c1.141-.925 1.141-1.759 0-2.5 1.032-1.627 2.366-2.793 4-3.5zm-150-1c1.073.751 1.24 1.751.5 3-1.667 1-3 2.333-4 4l-1.5-1.5c2.186-1.412 3.852-3.245 5-5.5zm12 2c-1.686 1.647-3.353 1.814-5 .5 1.431-.465 2.597-1.299 3.5-2.5.278.916.778 1.582 1.5 2zm-75-1c.789.283 1.456.783 2 1.5-1.316.528-1.983.028-2-1.5zm46 0c3.777.434 6.443 2.434 8 6-1.365 1.441-2.865 2.774-4.5 4a21.53 21.53 0 0 1-5-6c-.484-1.693.016-3.027 1.5-4zm36 0c4.521-.174 4.855.493 1 2-.798-.457-1.131-1.124-1-2zm13 2c-.303 3.94-2.136 6.94-5.5 9-6.318-4.651-5.818-7.984 1.5-10l4 1zm18-1c2.12 1.35 1.953 3.017-.5 5-.64-1.765-.473-3.432.5-5zm110 0c1.705.588 3.372.921 5 1a28.93 28.93 0 0 0-1.5 4c-.71-1.473-1.876-2.14-3.5-2zm-187 4c.346-1.863 1.346-2.696 3-2.5-.578 1.417-1.578 2.25-3 2.5zm-22-1c.577-1.273 1.243-1.273 2 0-.47.963-1.137.963-2 0zm64-1h3c-.466 1.701-.466 3.201 0 4.5-2.388 2.812-5.054 3.146-8 1 1.845-1.678 3.512-3.511 5-5.5zm41 0c1.273.577 1.273 1.243 0 2-.963-.47-.963-1.137 0-2zm-109 17c2.429.085 4.429 1.085 6 3 1.342-1.402 2.176-1.069 2.5 1 1.395-1.315 2.395-.981 3 1l1-1c24.182 8.3 49.682 11.467 76.5 9.5 15.381-1.792 29.381-7.126 42-16l18.5-14.5 1.5 1.5c-4 5.333-8.667 10-14 14-32.831 19.414-67.831 24.414-105 15-8.137-2.268-16.137-4.934-24-8-3.121-1.306-5.787-3.14-8-5.5zm210-17c1.837.139 2.17.806 1 2-.798-.457-1.131-1.124-1-2zm-191 2c2.545.938 3.045 2.271 1.5 4-.691-2.391-1.691-2.391-3 0l-1.5-1.5c1.442-.377 2.442-1.21 3-2.5zm33 1c1.765-.961 3.765-1.295 6-1 1.374 3.601.207 6.267-3.5 8-4.072-2.197-4.239-4.364-.5-6.5-.594-.464-1.261-.631-2-.5zm38 0c1.175-.219 2.175.114 3 1-4.33 2.698-7.663 5.698-10 9-1.083-.865-1.249-1.865-.5-3a36.13 36.13 0 0 0 7.5-7zm102 0c1.256-.039 2.256.461 3 1.5-2.838 1.813-5.838 2.813-9 3 1.909-1.699 3.909-3.199 6-4.5zm-160 1c.876-.131 1.543.202 2 1a34.2 34.2 0 0 0-6.5 3c-.483-.948-.649-1.948-.5-3 1.915.284 3.581-.049 5-1zm13 1c2.443.999 4.109 2.832 5 5.5a11.82 11.82 0 0 1-4.5 3.5c-1.558-1.859-3.391-3.359-5.5-4.5a208.31 208.31 0 0 0 5-4.5zm116 1c-.739-.131-1.406.036-2 .5.916.278 1.582.778 2 1.5-1.762-.143-3.429.191-5 1-.808-.308-1.475-.808-2-1.5 2.164-2.263 4.497-2.763 7-1.5zm3 0c2.524-1.3 5.191-1.3 8 0-2.589.705-5.256.705-8 0zm41-1c2.501.011 2.668.678.5 2-.464-.594-.631-1.261-.5-2zm-133 1c2.956.955 4.956 2.955 6 6-.712 1.546-1.878 2.546-3.5 3-2.167-1.328-4-2.994-5.5-5l3-4zm-51 1c4.813 2.995 4.813 3.995 0 3-1.291-1.027-1.291-2.027 0-3zm41 4c.172-.992-.162-1.658-1-2 .508-1.733 1.341-2.066 2.5-1 .585 1.498.085 2.498-1.5 3zm102-3c1.837.139 2.17.806 1 2-.798-.457-1.131-1.124-1-2zm15 1c.577-1.273 1.243-1.273 2 0-.47.963-1.137.963-2 0zm-145 0c3.446 1.112 5.446 3.445 6 7-1.644-.214-3.144.12-4.5 1-1.11-1.537-2.61-2.203-4.5-2 .115-2.447 1.115-4.447 3-6zm27 0c-.172.992.162 1.658 1 2-1.101 1.098-2.434 1.265-4 .5 1.191-.698 2.191-1.531 3-2.5zm5 4c2.797.467 4.131 2.133 4 5h-3a20.69 20.69 0 0 0-1-5zm-16 1c3.287.773 4.787 2.773 4.5 6-1.573-2.714-3.74-3.547-6.5-2.5.805-1.113 1.472-2.279 2-3.5zm-52 1a3 3 0 0 1 2 2c-1.333 0-2-.667-2-2z"/></g></svg>